<svg width="24" height="24" viewBox="0 0 24 24" fill="none" xmlns="http://www.w3.org/2000/svg">
<circle cx="12" cy="12" r="11" fill="#F0B90B" stroke="white" stroke-width="2"/>
<path d="M8.45817 7.36458L11.9998 5.3125L15.5415 7.36458L14.2394 8.125L11.9998 6.83333L9.76025 8.125L8.45817 7.36458ZM15.5415 9.94792L14.2394 9.1875L11.9998 10.4792L9.76025 9.1875L8.45817 9.94792V11.4583L10.6978 12.75V15.3333L11.9998 16.0937L13.3019 15.3333V12.75L15.5415 11.4583V9.94792ZM15.5415 14.0417V12.5312L14.2394 13.2917V14.8021L15.5415 14.0417ZM16.4686 14.5729L14.229 15.8646V17.375L17.7707 15.3229V11.2396L16.4686 12V14.5729ZM15.1665 8.65625L16.4686 9.41667V10.9271L17.7707 10.1667V8.65625L16.4686 7.89583L15.1665 8.65625ZM10.6978 16.4167V17.9271L11.9998 18.6875L13.3019 17.9271V16.4167L11.9998 17.1667L10.6978 16.4167ZM8.45817 14.0417L9.76025 14.8021V13.2917L8.45817 12.5312V14.0417ZM10.6978 8.65625L11.9998 9.41667L13.3019 8.65625L11.9998 7.89583L10.6978 8.65625ZM7.53109 9.41667L8.83317 8.65625L7.53109 7.89583L6.229 8.65625V10.1667L7.53109 10.9271V9.41667ZM7.53109 11.9896L6.229 11.2292V15.3333L9.77067 17.3854V15.875L7.53109 14.5833V11.9896Z" fill="white"/>
</svg>
