<svg width="48" height="48" viewBox="0 0 48 48" fill="none" xmlns="http://www.w3.org/2000/svg">
<circle cx="24" cy="24" r="23" fill="#0A59FF" stroke="white" stroke-width="2"/>
<path fill-rule="evenodd" clip-rule="evenodd" d="M24 11C16.8203 11 11 16.8203 11 24C11 31.1797 16.8203 37 24 37C31.1797 37 37 31.1797 37 24C37 16.8203 31.1797 11 24 11ZM21.9655 19.9655C20.8609 19.9655 19.9655 20.8609 19.9655 21.9655V26.0345C19.9655 27.1391 20.8609 28.0345 21.9655 28.0345H26.0345C27.1391 28.0345 28.0345 27.1391 28.0345 26.0345V21.9655C28.0345 20.8609 27.1391 19.9655 26.0345 19.9655H21.9655Z" fill="white"/>
</svg>
