<svg width="20" height="20" viewBox="0 0 20 20" fill="none" xmlns="http://www.w3.org/2000/svg">
<path d="M12 4.5H5.5C4.94772 4.5 4.5 4.94772 4.5 5.5V12C4.5 12.5523 4.94772 13 5.5 13H12C12.5523 13 13 12.5523 13 12V5.5C13 4.94772 12.5523 4.5 12 4.5Z" fill="#222222" stroke="#FAE247" stroke-width="1.5"/>
<path d="M14.5 7H8C7.44772 7 7 7.44772 7 8V14.5C7 15.0523 7.44772 15.5 8 15.5H14.5C15.0523 15.5 15.5 15.0523 15.5 14.5V8C15.5 7.44772 15.0523 7 14.5 7Z" fill="#222222" stroke="#FAE247" stroke-width="1.5"/>
</svg>
