<svg width="20" height="20" viewBox="0 0 20 20" fill="none" xmlns="http://www.w3.org/2000/svg">
<rect width="20" height="20" rx="10" fill="#FAE247"/>
<path d="M11.517 5.67603C13.2335 6.21107 14.0626 7.04707 14.0626 7.04707C12.9583 6.44933 11.9587 6.15255 10.9667 6.03133C10.2499 5.91429 9.37811 5.95191 8.91779 6.01879C8.45748 6.08567 7.54149 6.21107 6.43332 6.68759C6.04973 6.86733 5.82499 6.98855 5.82499 6.98855C5.82499 6.98855 6.65031 6.09403 8.47917 5.61751L8.36681 5.50047C8.36681 5.50047 6.98353 5.44195 5.49177 6.63325C5.49177 6.63325 4 9.43802 4 12.8907C4 12.8907 4.82531 14.4415 7.09202 14.5C7.09202 14.5 7.42525 14.0277 7.75848 13.6097C6.48757 13.1917 5.98773 12.3557 5.98773 12.3557C6.08423 12.409 6.17742 12.469 6.26671 12.5354H6.31708L6.36745 12.5647V12.573L6.41782 12.5981C6.69293 12.7193 6.96416 12.8364 7.18502 12.9576C7.6625 13.1772 8.16171 13.337 8.67291 13.4341C9.4401 13.5553 10.3235 13.6138 11.3271 13.4341C11.8231 13.3129 12.319 13.1958 12.815 12.9576C13.1366 12.7778 13.5318 12.6023 13.9658 12.3013C13.9658 12.3013 13.4698 13.1373 12.1447 13.5553C12.4159 13.9691 12.7995 14.4457 12.7995 14.4457C15.0701 14.3913 15.9496 12.8405 16 12.9074C16 9.45474 14.4966 6.64579 14.4966 6.64579C13.1808 5.63088 11.8854 5.52179 11.6595 5.52179L11.517 5.67603ZM11.8502 9.42966C12.4314 9.42966 12.9002 9.9647 12.9002 10.6168C12.9002 11.2772 12.4275 11.8123 11.8502 11.8123C11.2728 11.8123 10.8001 11.2772 10.8001 10.6251C10.8001 9.9647 11.2721 9.42966 11.8502 9.42966ZM8.09558 9.42966C8.67291 9.42966 9.14175 9.9647 9.14175 10.6168C9.14175 11.2772 8.66903 11.8123 8.0917 11.8123C7.51437 11.8123 7.03778 11.2772 7.03778 10.6251C7.03778 9.9647 7.51049 9.42966 8.09558 9.42966Z" fill="#222222"/>
</svg>
