<?xml version="1.0" encoding="utf-8"?>
<svg version="1.1" xmlns:xlink="http://www.w3.org/1999/xlink" width="26px" height="26px" xmlns="http://www.w3.org/2000/svg">
  <g transform="matrix(1 0 0 1 -2 -27 )">
    <path d="M 18.165178571428573 22.873325892857142  C 19.761160714285715 22.026971726190478  21.0718005952381 20.87834821428571  22.097098214285715 19.427455357142858  C 21.8843005952381 17.928199404761905  21.461123511904763 16.682849702380953  20.827566964285715 15.69140625  C 20.194010416666668 14.699962797619047  19.30171130952381 14.126860119047617  18.150669642857142 13.972098214285712  C 17.502604166666668 14.687872023809522  16.731212797619047 15.246465773809522  15.836495535714285 15.647879464285712  C 14.941778273809527 16.049293154761905  13.996279761904763 16.25  13 16.25  C 12.003720238095237 16.25  11.058221726190478 16.049293154761905  10.163504464285714 15.647879464285712  C 9.268787202380954 15.246465773809522  8.497395833333334 14.687872023809522  7.849330357142858 13.972098214285712  C 6.69828869047619 14.126860119047617  5.805989583333334 14.699962797619047  5.172433035714286 15.69140625  C 4.538876488095239 16.682849702380953  4.115699404761905 17.928199404761905  3.902901785714286 19.427455357142858  C 4.928199404761905 20.87834821428571  6.238839285714286 22.026971726190478  7.834821428571428 22.873325892857142  C 9.430803571428571 23.71968005952381  11.152529761904763 24.142857142857142  13 24.142857142857142  C 14.847470238095239 24.142857142857142  16.569196428571427 23.71968005952381  18.165178571428573 22.873325892857142  Z M 16.939174107142858 13.224888392857144  C 18.02734375 12.13671875  18.571428571428573 10.823660714285715  18.571428571428573 9.285714285714285  C 18.571428571428573 7.747767857142856  18.02734375 6.434709821428572  16.939174107142858 5.346540178571428  C 15.851004464285715 4.258370535714285  14.537946428571429 3.7142857142857153  13 3.7142857142857153  C 11.462053571428571 3.7142857142857153  10.148995535714286 4.258370535714285  9.060825892857142 5.346540178571428  C 7.97265625 6.434709821428572  7.428571428571428 7.747767857142856  7.428571428571428 9.285714285714285  C 7.428571428571428 10.823660714285715  7.97265625 12.13671875  9.060825892857142 13.224888392857144  C 10.148995535714286 14.313058035714288  11.462053571428571 14.857142857142856  13 14.857142857142856  C 14.537946428571429 14.857142857142856  15.851004464285715 14.313058035714288  16.939174107142858 13.224888392857144  Z M 24.969866071428573 7.950892857142856  C 25.656622023809526 9.556547619047617  26 11.239583333333332  26 13  C 26 14.760416666666664  25.656622023809526 16.441034226190474  24.969866071428573 18.041852678571427  C 24.283110119047624 19.64267113095238  23.36179315476191 21.025855654761905  22.205915178571427 22.19140625  C 21.050037202380956 23.35695684523809  19.669270833333336 24.28311011904762  18.063616071428573 24.969866071428573  C 16.45796130952381 25.656622023809526  14.770089285714285 26  13 26  C 11.239583333333334 26  9.55654761904762 25.656622023809526  7.950892857142858 24.969866071428573  C 6.345238095238096 24.28311011904762  4.962053571428571 23.359375  3.801339285714286 22.19866071428571  C 2.640625 21.037946428571427  1.716889880952381 19.654761904761905  1.0301339285714286 18.049107142857142  C 0.34337797619047616 16.44345238095238  0 14.760416666666664  0 13  C 0 11.239583333333332  0.34337797619047616 9.556547619047617  1.0301339285714286 7.950892857142856  C 1.716889880952381 6.345238095238093  2.640625 4.962053571428572  3.801339285714286 3.8013392857142847  C 4.962053571428571 2.640625  6.345238095238096 1.7168898809523803  7.950892857142858 1.0301339285714282  C 9.55654761904762 0.34337797619047605  11.239583333333334 0  13 0  C 14.760416666666668 0  16.443452380952383 0.34337797619047605  18.049107142857142 1.0301339285714282  C 19.65476190476191 1.7168898809523803  21.037946428571427 2.640625  22.198660714285715 3.8013392857142847  C 23.359375000000004 4.962053571428572  24.283110119047624 6.345238095238093  24.969866071428573 7.950892857142856  Z " fill-rule="nonzero" fill="#ffffff" stroke="none" transform="matrix(1 0 0 1 2 27 )" />
  </g>
</svg>