<svg width="110" height="110" viewBox="0 0 110 110" fill="none" xmlns="http://www.w3.org/2000/svg">
<circle cx="55" cy="55" r="51" fill="#E7446B"/>
<circle cx="55" cy="55" r="51" fill="white" fill-opacity="0.8"/>
<circle cx="55" cy="55" r="51" stroke="white" stroke-width="8"/>
<path fill-rule="evenodd" clip-rule="evenodd" d="M55.9259 54.0741H46.6667C41.5529 54.0741 37.4074 58.2196 37.4074 63.3333C37.4074 68.4471 41.5529 72.5926 46.6667 72.5926C51.7804 72.5926 55.9259 68.4471 55.9259 63.3333V54.0741ZM46.6667 46.6667C37.4619 46.6667 30 54.1286 30 63.3333C30 72.5381 37.4619 80 46.6667 80C55.8714 80 63.3333 72.5381 63.3333 63.3333V46.6667H46.6667Z" fill="white"/>
<path fill-rule="evenodd" clip-rule="evenodd" d="M63.3333 46.6667L67.963 46.6667C70.5198 46.6667 72.5926 44.5939 72.5926 42.037C72.5926 39.4802 70.5198 37.4074 67.963 37.4074C65.4061 37.4074 63.3333 39.4802 63.3333 42.037V46.6667ZM67.963 54.0741C74.6108 54.0741 80 48.6849 80 42.037C80 35.3892 74.6108 30 67.963 30C61.3151 30 55.9259 35.3892 55.9259 42.037V54.0741L67.963 54.0741Z" fill="white"/>
</svg>
