<svg width="20" height="20" viewBox="0 0 20 20" fill="none" xmlns="http://www.w3.org/2000/svg">
<rect opacity="0.01" width="20" height="20" fill="white"/>
<rect x="4.5" y="4.5" width="11" height="11" rx="5.5" stroke="#888888"/>
<path fill-rule="evenodd" clip-rule="evenodd" d="M10.7703 10.9519C10.7103 11.0532 10.6803 11.1652 10.6803 11.2879H9.70431C9.70431 10.9839 9.78031 10.7052 9.93231 10.4519C10.0843 10.1986 10.2923 9.9999 10.5563 9.8559C10.687 9.78657 10.7896 9.68457 10.8643 9.5499C10.939 9.41523 10.9763 9.26657 10.9763 9.1039C10.9763 8.94923 10.9383 8.80857 10.8623 8.6819C10.7863 8.55523 10.6843 8.45523 10.5563 8.3819C10.4283 8.30857 10.2883 8.2719 10.1363 8.2719C9.98165 8.2719 9.84031 8.30857 9.71231 8.3819C9.58431 8.45523 9.48298 8.55523 9.40831 8.6819C9.33365 8.80857 9.29631 8.94923 9.29631 9.1039H8.32031C8.32031 8.77057 8.40165 8.46723 8.56431 8.1939C8.72698 7.92057 8.94631 7.70257 9.22231 7.5399C9.49831 7.37723 9.80298 7.2959 10.1363 7.2959C10.4696 7.2959 10.7736 7.37723 11.0483 7.5399C11.323 7.70257 11.5423 7.92057 11.7063 8.1939C11.8703 8.46723 11.9523 8.77057 11.9523 9.1039C11.9523 9.44523 11.869 9.7599 11.7023 10.0479C11.5356 10.3359 11.307 10.5586 11.0163 10.7159C10.9123 10.7719 10.8303 10.8506 10.7703 10.9519ZM10.5803 12.9559C10.4843 13.0546 10.367 13.1039 10.2283 13.1039C10.087 13.1039 9.96765 13.0546 9.87031 12.9559C9.77298 12.8572 9.72431 12.7372 9.72431 12.5959C9.72431 12.4572 9.77298 12.3399 9.87031 12.2439C9.96765 12.1479 10.087 12.0999 10.2283 12.0999C10.367 12.0999 10.4843 12.1479 10.5803 12.2439C10.6763 12.3399 10.7243 12.4572 10.7243 12.5959C10.7243 12.7372 10.6763 12.8572 10.5803 12.9559Z" fill="#888888"/>
</svg>
