<svg width="20" height="20" viewBox="0 0 20 20" fill="none" xmlns="http://www.w3.org/2000/svg">
<rect width="20" height="20" rx="10" fill="#E7446B"/>
<path d="M16 9.86923C15.9993 9.5073 15.8534 9.16039 15.5942 8.90447C15.3351 8.64855 14.9837 8.50448 14.6172 8.5038C14.2909 8.50521 13.9759 8.62177 13.7289 8.83243L13.7055 8.84632C12.8055 8.27932 11.6149 7.91597 10.2954 7.86737L11.0829 5.65723L13.0469 6.12009C13.0468 6.39851 13.1516 6.66701 13.341 6.87328C13.5304 7.07954 13.7908 7.20879 14.0715 7.23585C14.3521 7.26291 14.6329 7.18584 14.8591 7.01965C15.0853 6.85346 15.2408 6.61006 15.2952 6.33687C15.3497 6.06368 15.2991 5.78027 15.1535 5.54185C15.0079 5.30343 14.7776 5.12708 14.5075 5.04716C14.2374 4.96724 13.9468 4.98947 13.6924 5.10952C13.438 5.22957 13.238 5.43885 13.1313 5.69657L10.804 5.14809L9.83603 7.86043C8.46026 7.88589 7.21575 8.25386 6.28295 8.83937C6.03443 8.62261 5.71455 8.50252 5.38296 8.50149C5.08419 8.5008 4.79326 8.5959 4.55391 8.77248C4.31456 8.94907 4.13973 9.1976 4.0557 9.48071C3.97166 9.76383 3.98297 10.0662 4.08792 10.3425C4.19286 10.6187 4.38578 10.8538 4.63766 11.0125C4.61257 11.1492 4.59924 11.2878 4.59782 11.4267C4.59782 13.3962 7.01654 15 9.98837 15C12.9602 15 15.3789 13.3962 15.3789 11.4267C15.3783 11.2917 15.3657 11.157 15.3414 11.0241C15.5421 10.9033 15.708 10.7337 15.8233 10.5315C15.9386 10.3293 15.9994 10.1013 16 9.86923ZM11.8235 11.635C11.6556 11.6348 11.4915 11.5854 11.3519 11.4932C11.2124 11.4009 11.1037 11.2699 11.0395 11.1166C10.9754 10.9634 10.9586 10.7948 10.9915 10.6322C11.0243 10.4695 11.1052 10.3201 11.2239 10.2029C11.3427 10.0856 11.4939 10.0058 11.6586 9.97335C11.8233 9.94094 11.9941 9.95746 12.1493 10.0208C12.3045 10.0842 12.4372 10.1915 12.5306 10.3293C12.624 10.4671 12.674 10.6291 12.6743 10.7949C12.6745 10.9053 12.6527 11.0147 12.6101 11.1168C12.5674 11.2188 12.5048 11.3115 12.4257 11.3896C12.3466 11.4677 12.2527 11.5295 12.1494 11.5716C12.0461 11.6138 11.9353 11.6353 11.8235 11.635ZM11.9922 13.0653C11.9665 13.0907 11.3571 13.704 9.98134 13.704C8.5962 13.704 8.04308 13.0838 8.01965 13.056C7.98395 13.0128 7.96668 12.9575 7.97149 12.9019C7.97629 12.8463 8.00279 12.7947 8.04538 12.7581C8.08798 12.7214 8.14334 12.7026 8.19976 12.7055C8.25619 12.7084 8.30926 12.7328 8.34777 12.7737C8.35948 12.7875 8.8212 13.2735 9.98134 13.2735C11.1579 13.2735 11.6758 12.7713 11.6805 12.7667C11.7206 12.7259 11.7755 12.7025 11.8331 12.7016C11.8907 12.7007 11.9462 12.7225 11.9876 12.7621C12.0289 12.8017 12.0526 12.8559 12.0535 12.9127C12.0544 12.9696 12.0323 13.0244 11.9922 13.0653ZM7.42669 10.7973C7.42692 10.6314 7.47691 10.4694 7.57036 10.3316C7.6638 10.1938 7.7965 10.0865 7.9517 10.0231C8.10689 9.95977 8.27762 9.94326 8.44232 9.97566C8.60701 10.0081 8.75829 10.0879 8.87704 10.2052C8.99579 10.3225 9.07668 10.4718 9.1095 10.6345C9.14232 10.7971 9.12559 10.9657 9.06143 11.1189C8.99727 11.2722 8.88856 11.4032 8.74902 11.4955C8.60949 11.5877 8.44539 11.6371 8.27745 11.6373C8.16565 11.6376 8.0549 11.6161 7.95155 11.574C7.8482 11.5318 7.75431 11.47 7.67525 11.3919C7.59619 11.3138 7.53354 11.2211 7.49088 11.1191C7.44822 11.017 7.42641 10.9077 7.42669 10.7973Z" fill="white"/>
</svg>
