<svg width="20" height="20" viewBox="0 0 20 20" fill="none" xmlns="http://www.w3.org/2000/svg">
<rect width="20" height="20" rx="10" fill="#E7446B"/>
<path d="M14.4435 5.50005C14.0614 5.50668 13.4773 5.70819 10.6645 6.86294C9.67893 7.26647 7.70954 8.10347 4.75631 9.37394C4.27708 9.56139 4.02587 9.74623 4.00269 9.92847C3.95855 10.2741 4.46252 10.3815 5.09658 10.5845C5.61423 10.7505 6.30963 10.945 6.671 10.9524C6.99917 10.9594 7.36549 10.826 7.76997 10.5521C10.5289 8.71384 11.9532 7.78481 12.0428 7.76503C12.0428 7.76503 12.1772 7.70996 12.2526 7.78533C12.2745 7.80876 12.2901 7.83744 12.2979 7.86861C12.3056 7.89979 12.3052 7.93243 12.2967 7.96341C12.2467 8.17428 9.65771 10.4998 9.50847 10.6529L9.43698 10.7243C8.88691 11.2672 8.33137 11.6225 9.29047 12.2442C10.1558 12.8073 10.6578 13.167 11.5505 13.7426C12.1209 14.112 12.5663 14.549 13.155 14.4955C13.4285 14.4709 13.7063 14.2194 13.8477 13.4704C14.1837 11.7006 14.8431 7.86343 14.9955 6.28498C15.005 6.15356 14.9994 6.02147 14.9787 5.89134C14.9665 5.78621 14.9148 5.68963 14.8341 5.6211C14.7138 5.51957 14.5263 5.49887 14.4435 5.50005Z" fill="white"/>
</svg>
