<svg width="16" height="16" viewBox="0 0 16 16" fill="none" xmlns="http://www.w3.org/2000/svg">
<path fill-rule="evenodd" clip-rule="evenodd" d="M8 16C12.4183 16 16 12.4183 16 8C16 3.58172 12.4183 0 8 0C3.58172 0 0 3.58172 0 8C0 12.4183 3.58172 16 8 16ZM11.7072 4.29288C11.3166 3.90236 10.6835 3.90236 10.2929 4.29288L8.00005 6.58577L5.70716 4.29288C5.31663 3.90236 4.68347 3.90236 4.29294 4.29288C3.90242 4.6834 3.90242 5.31657 4.29294 5.70709L6.58583 7.99999L4.29294 10.2929C3.90242 10.6834 3.90242 11.3166 4.29294 11.7071C4.68347 12.0976 5.31663 12.0976 5.70716 11.7071L8.00005 9.4142L10.2929 11.7071C10.6835 12.0976 11.3166 12.0976 11.7072 11.7071C12.0977 11.3166 12.0977 10.6834 11.7072 10.2929L9.41426 7.99999L11.7072 5.70709C12.0977 5.31657 12.0977 4.6834 11.7072 4.29288Z" fill="white"/>
</svg>
