<svg width="16" height="16" viewBox="0 0 16 16" fill="none" xmlns="http://www.w3.org/2000/svg">
<path fill-rule="evenodd" clip-rule="evenodd" d="M8.0001 16C12.4184 16 16.0001 12.4183 16.0001 8C16.0001 3.58172 12.4184 -3.4448e-08 8.0001 2.99953e-07C3.58182 -7.62481e-08 0.000101023 3.58172 0.000100938 8C0.000101023 12.4183 3.58182 16 8.0001 16ZM3.26461 7.57068C3.66582 7.19125 4.29865 7.20891 4.67808 7.61012L6.52799 9.56624L11.0934 5.00085C11.4839 4.61038 12.117 4.61038 12.5075 5.00085C12.8979 5.39132 12.8979 6.02439 12.5075 6.41486L7.21513 11.7071C6.93778 11.9845 6.53804 12.0648 6.18977 11.9482C6.03902 11.8978 5.89815 11.8106 5.78131 11.6871L3.22517 8.98416C2.84574 8.58295 2.8634 7.95011 3.26461 7.57068Z" fill="white"/>
</svg>
