<svg width="16" height="16" viewBox="0 0 16 16" fill="none" xmlns="http://www.w3.org/2000/svg">
<path fill-rule="evenodd" clip-rule="evenodd" d="M8 16C12.4183 16 16 12.4183 16 8C16 3.58172 12.4183 0 8 0C3.58172 0 0 3.58172 0 8C0 12.4183 3.58172 16 8 16ZM4.60599 11.394C2.73147 9.51952 2.73147 6.48033 4.60599 4.60581C6.41645 2.79535 9.31336 2.73349 11.1981 4.42022L11.1981 4.06211C11.1981 3.65184 11.507 3.3137 11.9048 3.26749L11.9981 3.26211C12.4084 3.26211 12.7465 3.57094 12.7927 3.96881L12.7981 4.06211V6.46211C12.7981 6.87238 12.4893 7.21051 12.0914 7.25673L11.9981 7.26211H9.60161C9.15978 7.26211 8.80161 6.90394 8.80161 6.46211C8.80161 6.05184 9.11044 5.7137 9.50831 5.66749L9.60161 5.66211L10.1853 5.66212C8.93066 4.48803 6.96149 4.51305 5.73736 5.73718C4.48768 6.98686 4.48768 9.01299 5.73736 10.2627C5.84313 10.3684 5.95505 10.4659 6.07252 10.5548C6.42481 10.8215 6.49423 11.3232 6.22757 11.6755C5.96091 12.0278 5.45916 12.0972 5.10687 11.8306C4.93096 11.6974 4.76366 11.5517 4.60599 11.394ZM10.9567 9.38105C10.9567 8.93923 11.3149 8.58105 11.7567 8.58105C12.1985 8.58105 12.5567 8.93923 12.5567 9.38105C12.5567 9.82288 12.1985 10.1811 11.7567 10.1811C11.3149 10.1811 10.9567 9.82288 10.9567 9.38105ZM10.2918 10.4816C9.85001 10.4816 9.49184 10.8398 9.49184 11.2816C9.49184 11.7235 9.85001 12.0816 10.2918 12.0816C10.7337 12.0816 11.0918 11.7235 11.0918 11.2816C11.0918 10.8398 10.7337 10.4816 10.2918 10.4816ZM8.00004 11.2C7.55822 11.2 7.20004 11.5582 7.20004 12C7.20004 12.4418 7.55822 12.8 8.00004 12.8C8.44187 12.8 8.80004 12.4418 8.80004 12C8.80004 11.5582 8.44187 11.2 8.00004 11.2Z" fill="white"/>
</svg>
