<svg width="20" height="20" viewBox="0 0 20 20" fill="none" xmlns="http://www.w3.org/2000/svg">
<rect x="0.5" y="0.5" width="19" height="19" rx="3.5" stroke="#E7446B"/>
<path d="M16 6.18287C15.5879 6.38802 15.1513 6.52254 14.7045 6.58204C15.1735 6.26896 15.5262 5.77256 15.6966 5.18556C15.2523 5.47959 14.7677 5.68674 14.263 5.79835C14.0505 5.54513 13.7949 5.34374 13.5117 5.20649C13.2285 5.06923 12.9237 4.99898 12.6158 5.00001C11.3697 5.00001 10.3599 6.1316 10.3599 7.52515C10.3596 7.71874 10.3792 7.9117 10.4184 8.1001C9.52446 8.05209 8.64919 7.79281 7.84842 7.33882C7.04765 6.88482 6.33898 6.24609 5.76764 5.46339C5.56702 5.84752 5.46174 6.28624 5.46299 6.73292C5.46348 7.15036 5.55542 7.56109 5.7305 7.92806C5.90559 8.29504 6.15831 8.60671 6.46588 8.83496C6.10811 8.82155 5.75811 8.71284 5.44408 8.51758V8.54932C5.44408 9.7732 6.22246 10.7937 7.25371 11.0261C7.05985 11.0843 6.86018 11.1139 6.65967 11.114C6.51686 11.1142 6.37438 11.0985 6.23428 11.0671C6.38174 11.5721 6.66391 12.0124 7.04159 12.3268C7.41928 12.6412 7.87374 12.8142 8.34189 12.8218C7.53837 13.524 6.55228 13.9029 5.53861 13.8989C5.35865 13.8988 5.17883 13.8872 5 13.8643C6.03477 14.6082 7.2345 15.0021 8.45898 15C12.6104 15 14.8796 11.1523 14.8796 7.81495L14.8716 7.48853C15.3142 7.1345 15.6965 6.6921 16 6.18287Z" fill="#E7446B"/>
</svg>
