<svg width="48" height="48" viewBox="0 0 48 48" fill="none" xmlns="http://www.w3.org/2000/svg">
<circle cx="24" cy="24" r="23" fill="white" stroke="white" stroke-width="2"/>
<path d="M15.4391 18.5163C20.1665 13.8279 27.8335 13.8279 32.5609 18.5163L33.1294 19.0768C33.3687 19.3116 33.3687 19.6903 33.1294 19.9251L31.1845 21.8565C31.0649 21.9701 30.8779 21.9701 30.7582 21.8565L29.9728 21.0764C26.6741 17.8043 21.3259 17.8043 18.0272 21.0764L17.1895 21.9095C17.0698 22.0231 16.8828 22.0231 16.7631 21.9095L14.8108 19.9857C14.5714 19.7509 14.5714 19.3722 14.8108 19.1374L15.4391 18.5163ZM36.5851 22.5079L38.3205 24.2272C38.5598 24.462 38.5598 24.8407 38.3205 25.0755L30.5039 32.8239C30.2645 33.0587 29.883 33.0587 29.6511 32.8239L24.1085 27.3251C24.0486 27.2645 23.9514 27.2645 23.8915 27.3251L18.3489 32.8239C18.1095 33.0587 17.728 33.0587 17.4961 32.8239L9.67952 25.0755C9.44016 24.8407 9.44016 24.462 9.67952 24.2272L11.4149 22.5079C11.6542 22.2731 12.0357 22.2731 12.2676 22.5079L17.8103 28.0067C17.8701 28.0673 17.9674 28.0673 18.0272 28.0067L23.5699 22.5079C23.8093 22.2731 24.1907 22.2731 24.4226 22.5079L29.9653 28.0067C30.0251 28.0673 30.1224 28.0673 30.1822 28.0067L35.7249 22.5079C35.9643 22.2731 36.3458 22.2731 36.5851 22.5079Z" fill="#3B99FC"/>
</svg>
