<svg width="20" height="20" viewBox="0 0 20 20" fill="none" xmlns="http://www.w3.org/2000/svg">
<rect width="20" height="20" rx="10" fill="#FAE247"/>
<path d="M12.5848 8.13483C12.6711 8.13483 12.7549 8.13725 12.8412 8.14209C12.4857 6.36044 10.5434 5 8.19727 5C5.60234 5 3.5 6.66787 3.5 8.72791C3.5 9.8487 4.13223 10.8606 5.12246 11.5456C5.16349 11.5732 5.19693 11.6099 5.21991 11.6524C5.2429 11.695 5.25476 11.7422 5.25449 11.7901C5.25334 11.822 5.24823 11.8537 5.23926 11.8845C5.16055 12.1653 5.03359 12.6156 5.02852 12.6349C5.01525 12.6701 5.00671 12.7067 5.00313 12.7439C5.00302 12.7636 5.00703 12.7832 5.0149 12.8014C5.02278 12.8197 5.03437 12.8363 5.04901 12.8502C5.06365 12.8642 5.08104 12.8752 5.10019 12.8827C5.11933 12.8902 5.13985 12.8941 5.16055 12.894C5.19208 12.8925 5.2227 12.8834 5.24941 12.8673L6.27773 12.3009C6.3524 12.2563 6.43845 12.232 6.52656 12.2307C6.57299 12.231 6.61914 12.2375 6.66367 12.25C7.16239 12.3861 7.67853 12.4553 8.19727 12.4558C8.28359 12.4558 8.36992 12.4534 8.45625 12.451C8.35123 12.1572 8.29803 11.8488 8.29883 11.5384C8.29883 9.65746 10.2184 8.13483 12.5848 8.13483ZM9.76641 6.93899C9.88983 6.93947 10.0103 6.9748 10.1127 7.04053C10.2151 7.10625 10.2948 7.19942 10.3417 7.30828C10.3885 7.41713 10.4006 7.53679 10.3762 7.65214C10.3518 7.7675 10.2921 7.87338 10.2046 7.95642C10.1172 8.03946 10.0059 8.09593 9.88479 8.11872C9.7637 8.1415 9.63824 8.12957 9.52426 8.08442C9.41027 8.03928 9.31287 7.96295 9.24435 7.86508C9.17583 7.7672 9.13926 7.65217 9.13926 7.53449C9.13973 7.37627 9.20604 7.2247 9.32362 7.11305C9.4412 7.0014 9.60045 6.9388 9.76641 6.93899ZM6.6332 8.12999C6.50978 8.12951 6.38927 8.09418 6.28688 8.02845C6.1845 7.96273 6.10484 7.86956 6.05795 7.76071C6.01107 7.65185 5.99906 7.53219 6.02345 7.41684C6.04783 7.30148 6.10752 7.1956 6.19497 7.11256C6.28243 7.02952 6.39373 6.97305 6.51482 6.95027C6.63591 6.92748 6.76137 6.93942 6.87535 6.98456C6.98934 7.0297 7.08674 7.10603 7.15526 7.2039C7.22378 7.30178 7.26035 7.41682 7.26035 7.53449C7.25988 7.69271 7.19357 7.84428 7.07599 7.95593C6.95841 8.06758 6.79916 8.13018 6.6332 8.12999ZM15.1467 13.8792C15.9719 13.3103 16.5 12.4679 16.5 11.5311C16.5 9.81481 14.748 8.42532 12.5848 8.42532C10.4215 8.42532 8.66953 9.81481 8.66953 11.5311C8.66953 13.2474 10.4215 14.6369 12.5848 14.6369C13.0167 14.6373 13.4465 14.5802 13.8619 14.4674C13.8988 14.4559 13.9374 14.4502 13.9762 14.4505C14.0495 14.4514 14.1212 14.4706 14.1844 14.5062L15.0426 14.9758C15.065 14.9906 15.0915 14.999 15.1188 15C15.1362 15.0002 15.1535 14.9972 15.1696 14.9909C15.1857 14.9847 15.2004 14.9754 15.2127 14.9637C15.225 14.952 15.2348 14.938 15.2413 14.9226C15.2478 14.9072 15.2511 14.8907 15.2508 14.8741C15.2477 14.8428 15.2409 14.812 15.2305 14.7821C15.2254 14.7652 15.1213 14.39 15.0527 14.1552C15.0448 14.1292 15.0405 14.1023 15.04 14.0753C15.0413 14.0371 15.0515 13.9996 15.0699 13.9656C15.0884 13.9317 15.1146 13.9022 15.1467 13.8792ZM11.2797 11.0373C11.1769 11.0368 11.0765 11.0073 10.9912 10.9525C10.9059 10.8976 10.8396 10.82 10.8006 10.7293C10.7616 10.6385 10.7517 10.5388 10.772 10.4427C10.7924 10.3466 10.8422 10.2584 10.9151 10.1893C10.988 10.1201 11.0807 10.0731 11.1816 10.0541C11.2825 10.0352 11.387 10.0452 11.482 10.0828C11.577 10.1204 11.6581 10.184 11.7152 10.2656C11.7723 10.3471 11.8027 10.443 11.8027 10.541C11.8026 10.6063 11.7889 10.671 11.7625 10.7313C11.7362 10.7916 11.6976 10.8463 11.649 10.8924C11.6004 10.9385 11.5428 10.975 11.4795 10.9999C11.4161 11.0247 11.3482 11.0374 11.2797 11.0373ZM13.8898 11.0373C13.787 11.0368 13.6866 11.0073 13.6014 10.9525C13.5161 10.8976 13.4498 10.82 13.4108 10.7293C13.3718 10.6385 13.3618 10.5388 13.3822 10.4427C13.4026 10.3466 13.4523 10.2584 13.5252 10.1893C13.5981 10.1201 13.6909 10.0731 13.7918 10.0541C13.8927 10.0352 13.9972 10.0452 14.0922 10.0828C14.1871 10.1204 14.2683 10.184 14.3253 10.2656C14.3824 10.3471 14.4129 10.443 14.4129 10.541C14.4127 10.6063 14.3991 10.671 14.3727 10.7313C14.3463 10.7916 14.3077 10.8463 14.2592 10.8924C14.2106 10.9385 14.153 10.975 14.0896 10.9999C14.0262 11.0247 13.9584 11.0374 13.8898 11.0373Z" fill="#222222"/>
</svg>
