<svg width="8" height="5" viewBox="0 0 8 5" fill="none" xmlns="http://www.w3.org/2000/svg">
<path fill-rule="evenodd" clip-rule="evenodd" d="M7.87778 4.32147C7.71482 4.48544 7.45061 4.48544 7.28765 4.32147L3.70494 0.716729C3.54199 0.552767 3.54199 0.286933 3.70494 0.122971C3.8679 -0.0409904 4.13211 -0.0409905 4.29507 0.122971L7.87778 3.72772C8.04074 3.89168 8.04074 4.15751 7.87778 4.32147Z" fill="white"/>
<path fill-rule="evenodd" clip-rule="evenodd" d="M0.12222 4.32147C-0.0407398 4.1575 -0.0407398 3.89167 0.12222 3.72771L3.70494 0.122971C3.8679 -0.0409904 4.13211 -0.0409905 4.29507 0.122971C4.45803 0.286933 4.45801 0.55276 4.29506 0.716722L0.712348 4.32147C0.549388 4.48543 0.285179 4.48543 0.12222 4.32147Z" fill="white"/>
</svg>
