<svg width="80" height="80" viewBox="0 0 80 80" fill="none" xmlns="http://www.w3.org/2000/svg">
<path fill-rule="evenodd" clip-rule="evenodd" d="M40 0C17.9086 0 0 17.9086 0 40C0 62.0914 17.9086 80 40 80C62.0914 80 80 62.0914 80 40C80 17.9086 62.0914 0 40 0ZM46.3235 22.2742C49.6933 22.8322 52.9157 23.8137 55.9221 25.1415C55.9483 25.1518 55.9699 25.1709 55.983 25.1954C61.3099 32.7429 63.9389 41.2603 62.9564 51.0632C62.9541 51.0839 62.9473 51.1039 62.9365 51.1218C62.9256 51.1397 62.911 51.1552 62.8936 51.1671C59.3206 53.7165 55.3333 55.656 51.1002 56.9037C51.0703 56.9125 51.0385 56.912 51.0089 56.9023C50.9794 56.8927 50.9536 56.8744 50.9351 56.8498C50.045 55.6548 49.2355 54.3962 48.5281 53.0742C48.5185 53.0559 48.5129 53.0359 48.5118 53.0154C48.5107 52.9949 48.514 52.9744 48.5217 52.9553C48.5293 52.9362 48.541 52.9188 48.556 52.9045C48.571 52.8902 48.589 52.8791 48.6087 52.8721C49.8917 52.4064 51.1139 51.8464 52.2889 51.1844C52.3099 51.1722 52.3274 51.1551 52.34 51.1347C52.3525 51.1142 52.3597 51.0911 52.3609 51.0672C52.362 51.0434 52.3572 51.0197 52.3467 50.9981C52.3362 50.9766 52.3204 50.958 52.3007 50.9439C52.0512 50.7649 51.8056 50.5782 51.5698 50.3896C51.5482 50.3728 51.5222 50.3622 51.4947 50.3592C51.4673 50.3561 51.4395 50.3607 51.4146 50.3723C43.7887 53.767 35.432 53.767 27.7157 50.3723C27.6909 50.3613 27.6634 50.3573 27.6363 50.3607C27.6093 50.3641 27.5837 50.3748 27.5625 50.3916C27.3267 50.5782 27.0791 50.7649 26.8315 50.9439C26.8121 50.9583 26.7965 50.9772 26.7864 50.9989C26.7762 51.0206 26.7717 51.0444 26.7732 51.0683C26.7748 51.0921 26.7824 51.1152 26.7953 51.1355C26.8082 51.1558 26.8261 51.1726 26.8473 51.1844C28.0264 51.8409 29.2563 52.4059 30.5256 52.874C30.5452 52.8808 30.5631 52.8917 30.5781 52.9058C30.5931 52.92 30.6048 52.9371 30.6125 52.9561C30.6201 52.9751 30.6235 52.9954 30.6224 53.0158C30.6213 53.0362 30.6158 53.0561 30.6061 53.0742C29.9123 54.3971 29.1065 55.6607 28.1972 56.8518C28.178 56.8754 28.152 56.8928 28.1225 56.9017C28.0931 56.9107 28.0616 56.9107 28.0321 56.9018C23.8062 55.6506 19.8254 53.712 16.2564 51.1671C16.2394 51.1544 16.2253 51.1385 16.2148 51.1203C16.2043 51.1021 16.1978 51.082 16.1955 51.0612C15.3722 42.5823 17.0482 33.9957 23.163 25.1916C23.1781 25.1684 23.2 25.1502 23.2259 25.1396C26.2342 23.8098 29.4567 22.8284 32.8245 22.2703C32.8549 22.2656 32.8861 22.2701 32.9138 22.2831C32.9415 22.2962 32.9645 22.3172 32.9798 22.3434C33.4284 23.1098 33.8332 23.9 34.1921 24.7105C37.7661 24.1875 41.3996 24.1875 44.9736 24.7105C45.2958 23.9792 45.7556 23.0536 46.1682 22.3434C46.1836 22.3176 46.2068 22.297 46.2346 22.2846C46.2624 22.2722 46.2935 22.2685 46.3235 22.2742ZM27.5212 41.318C27.5212 43.8409 29.437 45.8981 31.7595 45.8981C34.1194 45.8981 35.9979 43.8428 35.9979 41.318C36.0352 38.8105 34.1371 36.7379 31.7595 36.7379C29.3997 36.7379 27.5212 38.7932 27.5212 41.318ZM43.1914 41.318C43.1914 43.8409 45.1052 45.8981 47.4297 45.8981C49.8092 45.8981 51.668 43.8428 51.668 41.318C51.7054 38.8105 49.8073 36.7379 47.4297 36.7379C45.0679 36.7379 43.1914 38.7932 43.1914 41.318Z" fill="white"/>
</svg>
