<svg width="20" height="16" viewBox="0 0 20 16" fill="none" xmlns="http://www.w3.org/2000/svg">
<path d="M16.9307 1.29012C15.6558 0.693862 14.2892 0.25315 12.86 0.00254936C12.8473 1.56253e-05 12.8341 0.00164846 12.8223 0.00722206C12.8105 0.0127957 12.8007 0.0220343 12.7942 0.0336584C12.6192 0.352526 12.4242 0.768178 12.2875 1.09655C10.7718 0.86171 9.23089 0.86171 7.71518 1.09655C7.56296 0.732628 7.39131 0.37778 7.20103 0.0336584C7.19458 0.0218912 7.18482 0.0124436 7.17306 0.00657637C7.16129 0.00070917 7.14809 -0.00129864 7.13519 0.000820997C5.7069 0.251422 4.34028 0.692134 3.06448 1.28926C3.0535 1.29403 3.0442 1.30217 3.03781 1.31259C0.444554 5.26603 -0.266258 9.12183 0.0828981 12.9292C0.0838697 12.9386 0.086661 12.9476 0.091102 12.9557C0.095543 12.9639 0.101541 12.9711 0.108731 12.9768C1.62235 14.1195 3.31059 14.9901 5.10275 15.5519C5.11525 15.5559 5.12861 15.5559 5.1411 15.5519C5.15358 15.5479 5.16461 15.54 5.17275 15.5294C5.5584 14.9946 5.90014 14.4272 6.19439 13.8331C6.19847 13.825 6.20083 13.8161 6.20129 13.8069C6.20175 13.7978 6.20032 13.7886 6.19708 13.7801C6.19384 13.7716 6.18887 13.7639 6.18251 13.7575C6.17615 13.7512 6.16855 13.7463 6.16022 13.7433C5.62191 13.533 5.10032 13.2793 4.60027 12.9845C4.59128 12.9792 4.58371 12.9717 4.57823 12.9626C4.57275 12.9535 4.56954 12.9431 4.56888 12.9324C4.56822 12.9217 4.57013 12.911 4.57445 12.9012C4.57876 12.8915 4.58534 12.883 4.5936 12.8765C4.6986 12.7962 4.80359 12.7123 4.90359 12.6285C4.91259 12.621 4.92344 12.6162 4.93491 12.6146C4.94639 12.6131 4.95805 12.6149 4.96859 12.6199C8.241 14.1442 11.7851 14.1442 15.0191 12.6199C15.0297 12.6146 15.0415 12.6126 15.0531 12.614C15.0648 12.6153 15.0758 12.6201 15.085 12.6276C15.185 12.7123 15.2891 12.7962 15.395 12.8765C15.4033 12.8828 15.41 12.8912 15.4144 12.9009C15.4189 12.9106 15.421 12.9212 15.4205 12.9319C15.42 12.9426 15.4169 12.953 15.4116 12.9622C15.4063 12.9714 15.3988 12.9791 15.39 12.9845C14.8916 13.2818 14.3733 13.5333 13.8292 13.7424C13.8208 13.7455 13.8132 13.7505 13.8068 13.7569C13.8005 13.7634 13.7955 13.7711 13.7923 13.7797C13.789 13.7883 13.7876 13.7975 13.7881 13.8067C13.7886 13.8159 13.7909 13.8249 13.795 13.8331C14.095 14.4268 14.4383 14.9919 14.8158 15.5286C14.8237 15.5396 14.8346 15.5478 14.8471 15.5521C14.8596 15.5565 14.8732 15.5567 14.8858 15.5528C16.681 14.9925 18.372 14.1216 19.8873 12.9768C19.8947 12.9714 19.9009 12.9645 19.9055 12.9564C19.9101 12.9484 19.913 12.9394 19.914 12.9301C20.3306 8.52816 19.2157 4.70347 16.9566 1.31431C16.951 1.3033 16.9419 1.29472 16.9307 1.29012ZM6.68354 10.6107C5.69857 10.6107 4.88609 9.68697 4.88609 8.55409C4.88609 7.42033 5.68274 6.49743 6.68354 6.49743C7.69184 6.49743 8.49682 7.42811 8.48099 8.55409C8.48099 9.68784 7.68435 10.6107 6.68354 10.6107ZM13.3292 10.6107C12.3434 10.6107 11.5317 9.68697 11.5317 8.55409C11.5317 7.42033 12.3275 6.49743 13.3292 6.49743C14.3375 6.49743 15.1425 7.42811 15.1266 8.55409C15.1266 9.68784 14.3383 10.6107 13.3292 10.6107Z" fill="white" fill-opacity="0.5"/>
</svg>
