<svg width="20" height="20" viewBox="0 0 20 20" fill="none" xmlns="http://www.w3.org/2000/svg">
<path fill-rule="evenodd" clip-rule="evenodd" d="M10 0C4.475 0 0 4.41172 0 9.85859C0 14.221 2.8625 17.9057 6.8375 19.2119C7.3375 19.2982 7.525 19.0024 7.525 18.7437C7.525 18.5095 7.5125 17.7331 7.5125 16.9075C5 17.3634 4.35 16.3036 4.15 15.7491C4.0375 15.4657 3.55 14.5907 3.125 14.3566C2.775 14.1717 2.275 13.7158 3.1125 13.7034C3.9 13.6911 4.4625 14.4182 4.65 14.714C5.55 16.2051 6.9875 15.7861 7.5625 15.5273C7.65 14.8865 7.9125 14.4552 8.2 14.2087C5.975 13.9622 3.65 13.1119 3.65 9.34102C3.65 8.2689 4.0375 7.38162 4.675 6.69152C4.575 6.44506 4.225 5.43455 4.775 4.07899C4.775 4.07899 5.6125 3.82021 7.525 5.0895C8.325 4.86768 9.175 4.75677 10.025 4.75677C10.875 4.75677 11.725 4.86768 12.525 5.0895C14.4375 3.80788 15.275 4.07899 15.275 4.07899C15.825 5.43455 15.475 6.44506 15.375 6.69152C16.0125 7.38162 16.4 8.25657 16.4 9.34102C16.4 13.1243 14.0625 13.9622 11.8375 14.2087C12.2 14.5168 12.5125 15.1083 12.5125 16.0325C12.5125 17.3511 12.5 18.4109 12.5 18.7437C12.5 19.0024 12.6875 19.3105 13.1875 19.2119C15.1726 18.5512 16.8976 17.2934 18.1197 15.6155C19.3418 13.9376 19.9994 11.9242 20 9.85859C20 4.41172 15.525 0 10 0Z" fill="white" fill-opacity="0.5"/>
</svg>
