<svg width="27" height="27" viewBox="0 0 27 27" fill="none" xmlns="http://www.w3.org/2000/svg">
<path d="M23.1562 21.5889C23.1621 21.5801 23.1709 21.5713 23.1768 21.5625C25.0957 19.2803 26.25 16.3389 26.25 13.125C26.25 9.91113 25.0957 6.96973 23.1797 4.6875C23.1738 4.67871 23.165 4.67285 23.1592 4.66406C23.127 4.62598 23.0977 4.59082 23.0654 4.55566C23.0537 4.54102 23.042 4.5293 23.0303 4.51465L22.9102 4.37695L22.9072 4.37402C22.8633 4.32422 22.8164 4.27441 22.7725 4.22461L22.7695 4.22168C22.6758 4.12207 22.582 4.02246 22.4854 3.92578L22.4824 3.92285L22.3418 3.78223L22.333 3.77344C22.2891 3.72949 22.2451 3.68848 22.2012 3.64746C22.1865 3.63281 22.1719 3.61816 22.1543 3.60352C22.125 3.57422 22.0957 3.54785 22.0664 3.52148C22.0576 3.5127 22.0459 3.50391 22.0371 3.49219C19.6992 1.32422 16.5674 0 13.125 0C9.68262 0 6.55078 1.32422 4.20996 3.49219C4.20117 3.50098 4.18945 3.50977 4.18066 3.52148C4.15137 3.54785 4.12207 3.57715 4.09277 3.60645C4.07812 3.62109 4.06348 3.63574 4.0459 3.65039C4.00195 3.69141 3.95801 3.73535 3.91406 3.77637L3.90527 3.78516L3.76465 3.92578L3.76172 3.92871C3.66504 4.02539 3.57129 4.125 3.47754 4.22461L3.47461 4.22754C3.42773 4.27734 3.38379 4.32715 3.33984 4.37695L3.33691 4.37988C3.2959 4.42383 3.25488 4.4707 3.2168 4.51758C3.20508 4.53223 3.19336 4.54395 3.18164 4.55859C3.14941 4.59375 3.12012 4.63184 3.08789 4.66699C3.08203 4.67578 3.07324 4.68164 3.06738 4.69043C1.1543 6.96973 0 9.91113 0 13.125C0 16.3389 1.1543 19.2803 3.07031 21.5625C3.07617 21.5713 3.08496 21.5801 3.09082 21.5889L3.18164 21.6973C3.19336 21.7119 3.20508 21.7236 3.2168 21.7383L3.33691 21.876C3.33691 21.8789 3.33984 21.8789 3.33984 21.8818C3.38379 21.9316 3.42773 21.9814 3.47461 22.0283L3.47754 22.0312C3.57129 22.1309 3.66504 22.2305 3.75879 22.3271L3.76172 22.3301C3.80859 22.377 3.85254 22.4238 3.89941 22.4678L3.9082 22.4766C4.00488 22.5732 4.10449 22.667 4.2041 22.7578C6.55078 24.9258 9.68262 26.25 13.125 26.25C16.5674 26.25 19.6992 24.9258 22.04 22.7578C22.1398 22.6663 22.2375 22.5726 22.333 22.4766L22.3418 22.4678C22.3887 22.4209 22.4355 22.377 22.4795 22.3301L22.4824 22.3271C22.5791 22.2305 22.6729 22.1309 22.7637 22.0312L22.7666 22.0283C22.8105 21.9785 22.8574 21.9316 22.9014 21.8818C22.9014 21.8789 22.9043 21.8789 22.9043 21.876C22.9453 21.832 22.9863 21.7852 23.0244 21.7383C23.0361 21.7236 23.0479 21.7119 23.0596 21.6973C23.0927 21.6619 23.1249 21.6258 23.1562 21.5889ZM23.2764 17.4111C22.8721 18.3662 22.3389 19.251 21.6885 20.0537C20.956 19.4207 20.1551 18.8714 19.3008 18.416C19.6406 17.042 19.8516 15.5332 19.9072 13.9453H24.1113C24.0234 15.1436 23.7422 16.3066 23.2764 17.4111ZM24.1113 12.3047H19.9072C19.8516 10.7168 19.6406 9.20801 19.3008 7.83398C20.1592 7.37695 20.959 6.82617 21.6885 6.19629C23.1023 7.93645 23.9479 10.0686 24.1113 12.3047ZM17.4111 2.97363C18.5742 3.46582 19.6318 4.14551 20.5635 5.00098C20.0223 5.4618 19.4397 5.87173 18.8232 6.22559C18.3633 4.90723 17.7744 3.76172 17.0889 2.84473C17.1973 2.88574 17.3057 2.92969 17.4111 2.97363ZM14.7568 23.499C14.4873 23.71 14.2178 23.8711 13.9453 23.9795V18.5449C15.1078 18.626 16.251 18.8849 17.335 19.3125C17.0918 20.0332 16.8105 20.6982 16.4854 21.2988C15.9756 22.248 15.3779 23.0068 14.7568 23.499ZM16.4854 4.95117C16.8076 5.55469 17.0918 6.21973 17.335 6.9375C16.251 7.36511 15.1078 7.62398 13.9453 7.70508V2.27344C14.2148 2.38184 14.4873 2.54004 14.7568 2.75391C15.3779 3.24316 15.9756 4.00195 16.4854 4.95117ZM13.9453 16.9014V13.9453H18.2666C18.2197 15.2402 18.0586 16.4971 17.7891 17.6895L17.7803 17.7246C16.5508 17.2584 15.2578 16.9808 13.9453 16.9014ZM13.9453 12.3047V9.34863C15.2871 9.2666 16.5762 8.98242 17.7803 8.52539L17.7891 8.56055C18.0586 9.75293 18.2197 11.0068 18.2666 12.3047H13.9453ZM12.3047 13.9453V16.9014C10.9629 16.9834 9.67383 17.2676 8.46973 17.7246L8.46094 17.6895C8.19141 16.4971 8.03027 15.2432 7.9834 13.9453H12.3047ZM7.9834 12.3047C8.03027 11.0098 8.19141 9.75293 8.46094 8.56055L8.46973 8.52539C9.67383 8.98242 10.96 9.2666 12.3047 9.34863V12.3047H7.9834ZM12.3047 18.5449V23.9766C12.0352 23.8682 11.7627 23.71 11.4932 23.4961C10.8721 23.0068 10.2715 22.2451 9.76172 21.2959C9.43945 20.6924 9.15527 20.0273 8.91211 19.3096C10.002 18.8818 11.1357 18.627 12.3047 18.5449ZM12.3047 7.70508C11.1422 7.62398 9.99905 7.36511 8.91504 6.9375C9.1582 6.2168 9.43945 5.55176 9.76465 4.95117C10.2744 4.00195 10.8721 3.24023 11.4961 2.75098C11.7656 2.54004 12.0352 2.37891 12.3076 2.27051V7.70508H12.3047ZM8.83887 2.97363C8.94727 2.92969 9.05273 2.88574 9.16113 2.84473C8.47559 3.76172 7.88672 4.90723 7.42676 6.22559C6.81152 5.87402 6.22852 5.46387 5.68652 5.00098C6.61816 4.14551 7.67578 3.46582 8.83887 2.97363ZM2.97363 8.83887C3.37793 7.88379 3.91113 6.99902 4.56152 6.19629C5.29102 6.82617 6.09082 7.37695 6.94922 7.83398C6.60938 9.20801 6.39844 10.7168 6.34277 12.3047H2.13867C2.22656 11.1064 2.50781 9.94336 2.97363 8.83887ZM2.13867 13.9453H6.34277C6.39844 15.5332 6.60938 17.042 6.94922 18.416C6.09487 18.8714 5.29401 19.4207 4.56152 20.0537C3.14774 18.3136 2.30205 16.1814 2.13867 13.9453ZM8.83887 23.2764C7.67578 22.7842 6.61816 22.1045 5.68652 21.249C6.22852 20.7861 6.81152 20.3789 7.42676 20.0244C7.88672 21.3428 8.47559 22.4883 9.16113 23.4053C9.05273 23.3643 8.94434 23.3203 8.83887 23.2764ZM17.4111 23.2764C17.3027 23.3203 17.1973 23.3643 17.0889 23.4053C17.7744 22.4883 18.3633 21.3428 18.8232 20.0244C19.4385 20.376 20.0215 20.7861 20.5635 21.249C19.637 22.1009 18.5706 22.7868 17.4111 23.2764Z" fill="white"/>
</svg>
