<svg width="20" height="11" viewBox="0 0 20 11" fill="none" xmlns="http://www.w3.org/2000/svg">
<path d="M11.2812 5.5C11.2812 8.53722 8.75625 11 5.64 11C4.90033 11.001 4.16771 10.8595 3.48396 10.5836C2.80022 10.3077 2.17875 9.90284 1.65502 9.39212C1.1313 8.8814 0.715587 8.27482 0.431617 7.60701C0.147648 6.93919 0.000984258 6.22323 0 5.5C0 2.46156 2.525 6.65363e-06 5.64 6.65363e-06C6.37978 -0.00111768 7.11253 0.140261 7.79642 0.416068C8.48031 0.691875 9.10193 1.09671 9.62579 1.60745C10.1496 2.11818 10.5655 2.72482 10.8495 3.39271C11.1336 4.0606 11.2803 4.77666 11.2812 5.5ZM17.4688 5.5C17.4688 8.36 16.2062 10.6773 14.6488 10.6773C13.0912 10.6773 11.8288 8.35878 11.8288 5.5C11.8288 2.64 13.0912 0.322673 14.6488 0.322673C16.2062 0.322673 17.4688 2.64123 17.4688 5.5ZM20 5.5C20 8.06178 19.5562 10.1383 19.0075 10.1383C18.46 10.1383 18.0163 8.06055 18.0163 5.5C18.0163 2.93823 18.46 0.861672 19.0087 0.861672C19.5562 0.861672 20 2.93823 20 5.5Z" fill="white" fill-opacity="0.5"/>
</svg>
