<svg width="80" height="80" viewBox="0 0 80 80" fill="none" xmlns="http://www.w3.org/2000/svg">
<path fill-rule="evenodd" clip-rule="evenodd" d="M40 0C17.9086 0 0 17.9086 0 40C0 62.0914 17.9086 80 40 80C62.0914 80 80 62.0914 80 40C80 17.9086 62.0914 0 40 0ZM28.673 54.4334C36.7688 54.4334 43.3286 47.9706 43.3286 40.0004C43.326 38.1022 42.9449 36.2231 42.207 34.4705C41.469 32.7178 40.3888 31.1259 39.0278 29.7856C37.6669 28.4453 36.0519 27.383 34.2752 26.6592C32.4985 25.9355 30.5949 25.5644 28.673 25.5674C20.5804 25.5674 14.0206 32.027 14.0206 40.0004C14.0232 41.8983 14.4042 43.7771 15.1419 45.5295C15.8797 47.282 16.9597 48.8738 18.3203 50.214C19.6809 51.5542 21.2954 52.6167 23.0717 53.3406C24.8481 54.0646 26.7514 54.4359 28.673 54.4334ZM52.0772 53.5866C56.1235 53.5866 59.4033 47.5055 59.4033 40.0004C59.4033 32.4984 56.1235 26.4141 52.0772 26.4141C48.0309 26.4141 44.751 32.4952 44.751 40.0004C44.751 47.5023 48.0309 53.5866 52.0772 53.5866ZM63.4009 52.1722C64.8265 52.1722 65.9794 46.7229 65.9794 40.0004C65.9794 33.2778 64.8265 27.8286 63.4042 27.8286C61.9786 27.8286 60.8257 33.2778 60.8257 40.0004C60.8257 46.7197 61.9786 52.1722 63.4009 52.1722Z" fill="white"/>
</svg>
