<svg width="20" height="16" viewBox="0 0 20 16" fill="none" xmlns="http://www.w3.org/2000/svg">
<path fill-rule="evenodd" clip-rule="evenodd" d="M12.1148 2.31545C10.3238 3.00225 6.74351 4.42541 1.37532 6.58351C0.503643 6.90355 0.0463185 7.2165 0.00488308 7.52238C-0.0657107 8.04066 0.637158 8.24458 1.59171 8.52071C1.72215 8.55895 1.8572 8.59718 1.99532 8.63966C2.93606 8.92146 4.20061 9.25141 4.85743 9.26416C5.45441 9.27548 6.12045 9.04891 6.85554 8.58444C11.8708 5.45915 14.4597 3.88021 14.6224 3.84623C14.7375 3.82216 14.8971 3.791 15.0045 3.88022C15.1119 3.96801 15.1012 4.13511 15.0905 4.18043C15.0199 4.45373 12.2667 6.81717 10.8395 8.04066C10.3944 8.42159 10.0798 8.69206 10.0154 8.75437C9.87112 8.89173 9.7238 9.02342 9.58261 9.14945C8.70786 9.92547 8.0541 10.5089 9.61944 11.4605C10.3714 11.9179 10.973 12.296 11.573 12.6727C12.2283 13.0847 12.8821 13.4954 13.7292 14.008C13.9441 14.1383 14.1497 14.2728 14.3508 14.4045C15.1135 14.9072 15.7995 15.3576 16.6466 15.2867C17.1377 15.2443 17.6472 14.818 17.905 13.545C18.5142 10.5344 19.7143 4.01474 19.9921 1.32702C20.009 1.10387 19.9987 0.879667 19.9614 0.658631C19.9391 0.480107 19.8449 0.315841 19.6975 0.198404C19.478 0.0327224 19.1373 -0.00267921 18.9839 0.000152955C18.2917 0.0114816 17.2298 0.352758 12.1148 2.31545Z" fill="white" fill-opacity="0.5"/>
</svg>
