<svg width="20" height="16" viewBox="0 0 20 16" fill="none" xmlns="http://www.w3.org/2000/svg">
<path d="M20 1.84517C19.2645 2.15698 18.4744 2.36767 17.6438 2.46289C18.5008 1.97225 19.142 1.20003 19.4477 0.290336C18.6425 0.74793 17.7612 1.07003 16.8422 1.24262C16.2242 0.611302 15.4057 0.192854 14.5136 0.0522429C13.6216 -0.0883685 12.706 0.0567241 11.909 0.464994C11.1119 0.873264 10.4781 1.52187 10.1058 2.31011C9.73358 3.09835 9.64374 3.98213 9.85026 4.82422C8.2187 4.74585 6.62259 4.34012 5.16553 3.63337C3.70847 2.92662 2.42301 1.93464 1.39258 0.721814C1.04025 1.3033 0.837664 1.97748 0.837664 2.69549C0.837271 3.34186 1.00364 3.97833 1.32201 4.54843C1.64038 5.11852 2.10091 5.60462 2.66273 5.96359C2.01117 5.94376 1.37397 5.77532 0.804193 5.47228V5.52285C0.804127 6.42941 1.13189 7.30807 1.73186 8.00974C2.33184 8.71141 3.16707 9.19288 4.09583 9.37244C3.4914 9.52895 2.85769 9.552 2.24258 9.43986C2.50462 10.2199 3.01506 10.902 3.70243 11.3907C4.3898 11.8794 5.21969 12.1502 6.07593 12.1652C4.62242 13.2569 2.82735 13.8491 0.979477 13.8465C0.652146 13.8466 0.325091 13.8283 0 13.7917C1.87569 14.9456 4.05914 15.5579 6.28909 15.5555C13.8378 15.5555 17.9644 9.57385 17.9644 4.386C17.9644 4.21746 17.96 4.04723 17.9521 3.87868C18.7548 3.3233 19.4476 2.63557 19.9982 1.8477L20 1.84517Z" fill="white" fill-opacity="0.5"/>
</svg>
