<svg width="80" height="80" viewBox="0 0 80 80" fill="none" xmlns="http://www.w3.org/2000/svg">
<path fill-rule="evenodd" clip-rule="evenodd" d="M40 0C17.9086 0 0 17.9086 0 40C0 62.0914 17.9086 80 40 80C62.0914 80 80 62.0914 80 40C80 17.9086 62.0914 0 40 0ZM60.4411 28.8383C62.3935 28.6162 64.2506 28.1247 65.9794 27.3973L65.9752 27.4032C64.6811 29.2411 63.0525 30.8455 61.1657 32.1411C61.1844 32.5343 61.1947 32.9314 61.1947 33.3246C61.1947 45.4271 51.4949 59.3814 33.7517 59.3814C28.5101 59.387 23.3779 57.9584 18.9691 55.2667C19.7332 55.352 20.502 55.3947 21.2713 55.3945C25.6148 55.4005 29.8341 54.0191 33.2506 51.4724C31.238 51.4373 29.2874 50.8056 27.6717 49.6655C26.056 48.5255 24.8562 46.9342 24.2403 45.1145C25.6861 45.3761 27.1757 45.3223 28.5964 44.9572C26.4133 44.5383 24.4501 43.4151 23.0398 41.7782C21.6296 40.1414 20.8592 38.0916 20.8593 35.9767V35.8588C22.1986 36.5657 23.6963 36.9586 25.2279 37.0049C23.9073 36.1675 22.8248 35.0335 22.0765 33.7035C21.3281 32.3736 20.9371 30.8888 20.938 29.3809C20.938 27.7059 21.4142 26.1332 22.2424 24.7767C24.6644 27.606 27.6859 29.9201 31.1107 31.5689C34.5356 33.2176 38.2872 34.1641 42.1223 34.3469C41.6368 32.3825 41.848 30.3207 42.723 28.4819C43.598 26.6431 45.0878 25.13 46.9613 24.1775C48.8347 23.2251 50.9868 22.8866 53.0836 23.2147C55.1804 23.5427 57.1044 24.5189 58.557 25.9916C60.7172 25.589 62.7886 24.8376 64.6813 23.7701C63.9627 25.8923 62.4556 27.6937 60.4411 28.8383Z" fill="white"/>
</svg>
