<svg width="198" height="264" viewBox="0 0 198 264" fill="none" xmlns="http://www.w3.org/2000/svg">
<path d="M197.497 240.64C197.497 283.147 153.286 254.651 98.7487 254.651C44.2113 254.651 0 283.147 0 240.64C0 198.133 44.2113 163.674 98.7487 163.674C153.286 163.674 197.497 198.133 197.497 240.64Z" fill="#FAE247"/>
<path d="M42.3075 71.5652C42.3075 71.5652 32.8698 42.1805 56.7636 30.5541C80.6762 18.9465 142.995 29.954 142.995 29.954C142.995 29.954 150.279 71.3215 142.564 76.7221C134.849 82.1227 42.2888 71.5652 42.2888 71.5652H42.3075Z" fill="#373C44"/>
<path d="M56.5611 87.9215C58.4257 80.0409 53.5578 72.1386 45.6884 70.2714C37.8189 68.4041 29.9279 73.2789 28.0633 81.1595C26.1987 89.0402 31.0666 96.9424 38.936 98.8097C46.8054 100.677 54.6964 95.8021 56.5611 87.9215Z" fill="#AA6D6D"/>
<path d="M156.647 98.0977C164.124 95.0127 167.689 86.4415 164.609 78.9532C161.528 71.4649 152.969 67.8953 145.491 70.9802C138.014 74.0651 134.449 82.6364 137.53 90.1247C140.61 97.613 149.169 101.183 156.647 98.0977Z" fill="#AA6D6D"/>
<path d="M113.308 137.779L110.837 105.188L85.4261 108.676L81.269 156.307C89.658 155.294 103.309 151.45 113.308 137.761V137.779Z" fill="#AA6D6D"/>
<path d="M135.767 100.144C134.362 103.219 133.613 106.613 132.003 109.576C127.621 117.621 117.303 120.959 109.027 117.039C106.592 115.895 104.383 114.17 101.724 113.683C99.2893 113.233 96.6678 113.945 94.7952 115.577C93.2223 116.946 92.1549 118.896 90.3573 119.927C89.0839 120.64 87.5671 120.809 86.1065 120.827C78.4103 120.902 71.9313 117.339 67.5308 111.151C63.5423 105.544 61.033 98.8872 56.1644 93.9179C53.5241 91.2176 50.3033 89.1923 47.0263 87.2983C47.0638 87.6734 47.1012 88.0484 47.1574 88.4422C48.8614 103.838 56.2018 117.227 70.1524 124.672C84.1404 132.135 103.184 134.798 118.071 128.647C129.606 123.884 138.519 115.427 143.07 103.988C144.774 99.6936 145.935 95.0243 146.684 90.1674C141.946 91.5363 137.883 95.4931 135.785 100.087L135.767 100.144Z" fill="#373C44"/>
<path d="M147.62 60.3329C145.017 8.2767 102.679 9.04555 102.679 9.04555C102.679 9.04555 46.2024 4.69503 46.4084 70.5716C45.959 77.96 46.2586 80.454 47.0076 87.3361C50.2846 89.2301 53.5054 91.2553 56.1457 93.9556C63.1116 101.063 65.5834 112.277 73.9912 117.621C77.3805 119.777 81.4439 120.715 85.4512 120.828C87.4174 120.884 89.4959 120.715 91.0876 119.552C92.286 118.671 93.0538 117.302 94.0837 116.215C96.1061 114.096 99.252 113.139 102.098 113.777C104.589 114.321 106.686 115.933 108.971 117.04C112.978 118.971 117.734 119.29 121.966 117.921C126.198 116.552 129.868 113.514 132.003 109.595C133.632 106.613 134.362 103.238 135.767 100.163C137.864 95.5683 141.946 91.6116 146.665 90.2427C148.201 80.3603 148.069 69.784 147.601 60.3517L147.62 60.3329Z" fill="#967971"/>
<path d="M81.2689 156.325L79.4338 177.29C79.4338 177.29 80.3326 176.84 97.2792 178.828C114.226 180.816 115.424 165.776 115.424 165.776L113.29 137.779C103.29 151.45 89.6392 155.313 81.2502 156.325H81.2689Z" fill="#967971"/>
<path d="M76.388 81.0539C76.388 83.923 75.227 86.2671 73.7852 86.2671C72.3433 86.2671 71.1823 83.9418 71.1823 81.0539C71.1823 78.1661 72.3433 75.8408 73.7852 75.8408C75.227 75.8408 76.388 78.1661 76.388 81.0539Z" fill="#373C44"/>
<path d="M121.91 87.1479C123.347 87.1479 124.513 84.8139 124.513 81.9348C124.513 79.0557 123.347 76.7217 121.91 76.7217C120.472 76.7217 119.307 79.0557 119.307 81.9348C119.307 84.8139 120.472 87.1479 121.91 87.1479Z" fill="#373C44"/>
<path d="M102.454 84.542C101.405 85.1983 100.394 85.8359 99.4392 86.4735C98.5403 87.0923 97.4917 87.9549 97.4543 88.5737C97.4168 88.8362 97.5666 89.1363 97.9973 89.5113C98.3718 89.8676 98.8025 90.1489 99.2706 90.2989C100.207 90.599 101.387 90.3364 102.454 89.7364C101.761 90.7302 100.507 91.5553 99.0459 91.3678C98.3344 91.2928 97.679 90.9365 97.1359 90.524C96.6491 90.1864 95.9562 89.3988 96.0498 88.4425C96.1809 87.5236 96.7427 86.9423 97.2483 86.5297C97.7726 86.1172 98.3156 85.7796 98.8961 85.5359C100.038 85.0108 101.237 84.692 102.454 84.542Z" fill="#373C44"/>
<path d="M92.4171 101.719C93.5781 102.488 94.7765 103.107 95.975 103.632C97.1921 104.12 98.428 104.476 99.6826 104.513C100.919 104.588 102.173 104.345 103.334 103.819C104.533 103.332 105.6 102.526 106.742 101.719C106.368 102.301 105.956 102.882 105.506 103.426C104.982 103.894 104.495 104.457 103.84 104.795C102.623 105.62 101.087 105.995 99.6077 105.938C96.6116 105.77 93.9713 104.026 92.3984 101.738L92.4171 101.719Z" fill="#373C44"/>
<path d="M71.1824 100.987C74.2022 100.987 76.6503 98.5359 76.6503 95.5118C76.6503 92.4877 74.2022 90.0361 71.1824 90.0361C68.1626 90.0361 65.7145 92.4877 65.7145 95.5118C65.7145 98.5359 68.1626 100.987 71.1824 100.987Z" fill="#AA6D6D"/>
<path d="M123.82 102.225C126.84 102.225 129.288 99.7737 129.288 96.7496C129.288 93.7255 126.84 91.2739 123.82 91.2739C120.8 91.2739 118.352 93.7255 118.352 96.7496C118.352 99.7737 120.8 102.225 123.82 102.225Z" fill="#AA6D6D"/>
<path d="M114.195 71.5654C114.813 69.7464 116.068 68.2837 117.547 67.1024C119.064 65.9397 120.955 65.1334 122.959 64.9271C124.962 64.7021 127.078 65.0959 128.763 66.1085C129.662 66.521 130.336 67.2524 131.048 67.8524C131.685 68.5463 132.209 69.3526 132.64 70.1777C130.786 69.6902 129.25 69.0901 127.715 68.8651C126.217 68.5275 124.775 68.5088 123.352 68.6588C120.468 68.9213 117.622 70.1402 114.195 71.5841V71.5654Z" fill="#373C44"/>
<path d="M82.1929 70.1773C79.0096 67.7021 76.0322 66.877 72.8489 66.9895C71.2385 66.9895 69.5906 67.3645 67.8492 67.6646C67.0065 67.9083 66.089 68.0396 65.1714 68.2646C64.2539 68.4897 63.3363 68.7147 62.3064 68.8084C62.9056 68.0021 63.6172 67.3083 64.3475 66.6144C65.1152 65.9956 65.9392 65.433 66.8005 64.908C68.5982 64.0079 70.5644 63.2578 72.7365 63.239C74.8712 63.164 77.137 63.7266 78.8972 65.0017C80.6574 66.2581 81.9495 68.1146 82.1929 70.1586V70.1773Z" fill="#373C44"/>
<path d="M113.989 95.7372C109.457 97.4812 106.349 86.6799 100.825 90.8991C100.825 90.8991 100.619 91.0679 99.8886 90.9366V90.8054C99.7763 90.8429 99.6827 90.8616 99.589 90.8804C99.4954 90.8616 99.4018 90.8429 99.2894 90.8054V90.9366C98.5591 91.0679 98.3532 90.8991 98.3532 90.8991C92.8291 86.6799 89.7019 97.4812 85.1891 95.7372C89.2525 98.9438 91.9677 99.8627 99.589 95.8497C107.229 99.8627 109.926 98.9438 113.989 95.7372Z" fill="#373C44"/>
<path d="M146.01 69.1279C138.988 67.2339 133.595 30.6108 121.891 30.0107C110.188 29.4107 72.0249 66.5026 50.9212 49.6631C29.855 32.8423 34.0682 11.7086 38.0942 10.0959C42.1202 8.48317 43.7119 18.7406 43.7119 18.7406C43.7119 18.7406 42.4947 7.47055 47.0263 6.66421C51.5579 5.85786 52.1571 16.5279 52.1571 16.5279C52.1571 16.5279 49.5168 3.45758 56.9696 3.2513C64.4224 3.04503 60.3964 15.9278 60.3964 15.9278C60.3964 15.9278 109.682 -14.6758 124.513 8.97073C155.653 15.459 153.05 71.0219 146.028 69.1279H146.01Z" fill="#373C44"/>
<path d="M123.82 10.7144C123.82 10.7144 125.73 0.306898 128.295 0.00686214C130.861 -0.293173 126.048 9.34547 126.048 9.34547C126.048 9.34547 130.43 3.70105 131.703 5.35125C132.995 6.98269 126.029 12.1396 123.801 10.6956L123.82 10.7144Z" fill="#373C44"/>
<path d="M80.6136 163.845L97.2793 178.809L87.8978 197.149C87.8978 197.149 71.7564 184.378 72.5428 167.276C81.6247 152.2 81.1753 157.263 81.1753 157.263L80.5948 163.826L80.6136 163.845Z" fill="white"/>
<path d="M115.012 163.845L97.298 178.809L107.728 197.149C107.728 197.149 123.87 184.378 123.083 167.276C114.001 152.2 114.451 157.263 114.451 157.263L115.031 163.826L115.012 163.845Z" fill="white"/>
<path d="M100 201C100 202.644 98.6442 204 97 204C95.3558 204 94 202.644 94 201C94 199.356 95.3558 198 97 198C98.6442 198 100 199.356 100 201Z" fill="white"/>
<path d="M100 233.048C100 234.692 98.6442 236.048 97 236.048C95.3558 236.048 94 234.692 94 233.048C94 231.404 95.3558 230.048 97 230.048C98.6442 230.048 100 231.404 100 233.048Z" fill="white"/>
</svg>
