<svg width="184" height="264" viewBox="0 0 184 264" fill="none" xmlns="http://www.w3.org/2000/svg">
<g clip-path="url(#clip0_82_46)">
<path d="M183.066 241.077C183.066 282.54 142.085 255 91.5328 255C40.9807 255 0 282.54 0 241.077C0 199.613 40.9807 166 91.5328 166C142.085 166 183.066 199.613 183.066 241.077Z" fill="#FAE247"/>
<path d="M66.5 173C57.5 200 79 255.5 79 255.5C79 255.5 86.5712 254.889 93 255C100.845 255.136 109 256 109 256C109 256 129.121 193.049 120 172C113.5 157 72.3758 155.373 66.5 173Z" fill="white"/>
<path d="M37.7305 166.346C37.7305 166.346 106.961 153.676 143.424 165.631C153.219 140.51 173.417 19.0147 98.0112 17.2911C16.8896 15.4209 30.3425 147.588 37.7305 166.346Z" fill="#FFF6CC"/>
<path d="M53.4444 93.4908C54.7558 85.6805 49.4728 78.2883 41.6446 76.9799C33.8164 75.6715 26.4072 80.9424 25.0958 88.7527C23.7844 96.563 29.0674 103.955 36.8956 105.264C44.7238 106.572 52.133 101.301 53.4444 93.4908Z" fill="#E09999"/>
<path d="M160.197 93.4462C161.469 85.6293 156.149 78.2639 148.314 76.9951C140.479 75.7262 133.097 81.0344 131.825 88.8512C130.553 96.6681 135.874 104.033 143.708 105.302C151.543 106.571 158.925 101.263 160.197 93.4462Z" fill="#E09999"/>
<path d="M108.273 138.676L105.847 106.808L80.908 110.219L76.828 156.793C85.0615 155.802 98.4592 152.043 108.273 138.658V138.676Z" fill="#E0A696"/>
<path d="M44.9532 60.6009C43.6116 63.9565 43.8137 68.5589 43.5932 72.0794C43.1337 79.7073 43.1705 87.4085 44.0159 94.9996C45.6883 110.054 52.8926 123.146 66.5844 130.425C80.3129 137.723 99.0036 140.327 113.614 134.312C124.935 129.655 133.683 121.385 138.149 110.2C143.258 97.475 143.314 81.1925 142.615 67.4587C140.061 16.5574 98.5074 17.3092 98.5074 17.3092C98.5074 17.3092 60.2439 22.4067 44.9348 60.5826L44.9532 60.6009Z" fill="#EFC9BD"/>
<path d="M76.828 156.811L75.0269 177.311C75.0269 177.311 75.7621 187.561 92.376 189.504C108.99 191.448 110.956 174.139 110.956 174.139L108.255 138.695C98.4408 152.062 85.0431 155.839 76.8096 156.829L76.828 156.811Z" fill="#EFC9BD"/>
<path d="M67.9076 88.6004C67.9076 91.4058 66.7682 93.6978 65.353 93.6978C63.9379 93.6978 62.7985 91.4242 62.7985 88.6004C62.7985 85.7766 63.9379 83.5029 65.353 83.5029C66.7682 83.5029 67.9076 85.7766 67.9076 88.6004Z" fill="#373C44"/>
<path d="M122.767 90.6355C122.767 93.441 121.627 95.733 120.212 95.733C118.797 95.733 117.658 93.4593 117.658 90.6355C117.658 87.8118 118.797 85.5381 120.212 85.5381C121.627 85.5381 122.767 87.8118 122.767 90.6355Z" fill="#373C44"/>
<path d="M93.435 91.1309C92.4058 91.7726 91.4134 92.3961 90.4761 93.0195C89.5939 93.6246 88.5648 94.468 88.528 95.0731C88.4912 95.3298 88.6383 95.6232 89.061 95.9899C89.4285 96.3383 89.8512 96.6134 90.3107 96.7601C91.2296 97.0534 92.3874 96.7967 93.435 96.21C92.755 97.1818 91.5237 97.9886 90.0902 97.8052C89.3918 97.7319 88.7485 97.3835 88.2156 96.9801C87.7377 96.65 87.0577 95.8799 87.1496 94.9448C87.2783 94.0463 87.8296 93.4779 88.3258 93.0745C88.8404 92.6711 89.3734 92.341 89.9431 92.1027C91.0642 91.5893 92.2404 91.2775 93.435 91.1309Z" fill="#373C44"/>
<path d="M86.341 103.086C87.4804 103.838 88.6567 104.443 89.8329 104.956C91.0274 105.433 92.2404 105.781 93.4718 105.818C94.6847 105.891 95.9161 105.653 97.0555 105.14C98.2317 104.663 99.2793 103.874 100.4 103.086C100.033 103.654 99.6285 104.223 99.1874 104.755C98.6728 105.213 98.195 105.763 97.5517 106.093C96.3571 106.9 94.8501 107.267 93.3982 107.212C90.4577 107.047 87.8664 105.341 86.3226 103.104L86.341 103.086Z" fill="#373C44"/>
<path d="M39.2743 68.0271C39.2743 68.0271 94.9971 62.8563 95.9528 31.3914C100.419 57.9422 124.292 61.0594 148.827 66.4685C148.827 66.4685 141.071 12.9635 92.755 17.2542C82.5183 18.171 73.5865 24.1303 65.9411 30.1445C48.6656 43.75 41.0386 63.9381 39.2743 68.0088V68.0271Z" fill="#FFF6CC"/>
<path d="M99.3895 19.5282C99.3895 19.5282 102.642 1.04531 98.1398 0.0368241C93.6372 -0.971666 95.9344 17.3095 95.9344 17.3095C95.9344 17.3095 94.4826 6.03276 87.7929 6.27113C81.1032 6.52783 94.3723 19.2715 99.3895 19.5099V19.5282Z" fill="#FFF6CC"/>
<path d="M62.2471 111.888C65.2109 111.888 67.6136 109.49 67.6136 106.533C67.6136 103.576 65.2109 101.179 62.2471 101.179C59.2833 101.179 56.8807 103.576 56.8807 106.533C56.8807 109.49 59.2833 111.888 62.2471 111.888Z" fill="#E09999"/>
<path d="M122.767 111.888C125.73 111.888 128.133 109.49 128.133 106.533C128.133 103.576 125.73 101.179 122.767 101.179C119.803 101.179 117.4 103.576 117.4 106.533C117.4 109.49 119.803 111.888 122.767 111.888Z" fill="#E09999"/>
<path d="M60.2623 110.384C71.1938 110.384 80.0556 101.542 80.0556 90.6358C80.0556 79.7292 71.1938 70.8877 60.2623 70.8877C49.3307 70.8877 40.4689 79.7292 40.4689 90.6358C40.4689 101.542 49.3307 110.384 60.2623 110.384Z" stroke="white" stroke-miterlimit="10"/>
<path d="M123.98 110.384C134.911 110.384 143.773 101.542 143.773 90.6358C143.773 79.7292 134.911 70.8877 123.98 70.8877C113.048 70.8877 104.186 79.7292 104.186 90.6358C104.186 101.542 113.048 110.384 123.98 110.384Z" stroke="white" stroke-miterlimit="10"/>
<path d="M79.7616 89.6091C79.7616 89.6091 94.1518 78.1673 104.186 90.6359" stroke="white" stroke-miterlimit="10"/>
<path d="M113.706 77.5804C114.588 76.0769 115.875 74.83 117.363 73.8398C118.852 72.8497 120.598 72.1896 122.417 71.9879C124.237 71.8045 126.148 72.0796 127.766 72.9047C129.42 73.6381 130.761 74.8667 131.827 76.2052C131 75.8568 130.302 75.3984 129.548 75.0867C128.776 74.7933 128.041 74.4083 127.251 74.2432C125.726 73.7665 124.145 73.6198 122.62 73.8032C119.514 74.1149 116.573 75.6551 113.725 77.5804H113.706Z" fill="#685A56"/>
<path d="M70.9584 77.4522C68.1282 75.1602 64.8752 73.95 61.5487 73.8583C59.8763 73.84 58.2039 74.0967 56.5131 74.5001C55.6677 74.7018 54.8591 74.9951 53.9953 75.2335C53.1683 75.5452 52.3412 75.8569 51.4407 76.1136C52.1207 75.5086 52.8558 74.9585 53.6093 74.4084C54.418 73.9683 55.2082 73.4732 56.072 73.1249C57.7996 72.4097 59.6742 72.0063 61.6039 72.0063C63.5152 72.0797 65.4449 72.5564 67.0806 73.5099C68.7346 74.4451 70.1498 75.7836 70.9768 77.4155L70.9584 77.4522Z" fill="#685A56"/>
</g>
<defs>
<clipPath id="clip0_82_46">
<rect width="183.066" height="264" fill="white"/>
</clipPath>
</defs>
</svg>
