<svg width="194" height="264" viewBox="0 0 194 264" fill="none" xmlns="http://www.w3.org/2000/svg">
<g clip-path="url(#clip0_82_86)">
<path d="M59.6743 46.4238L41.6201 41.6978C41.6201 41.6978 30.7331 75.4022 45.8854 86.9741C61.0377 98.5265 59.6743 46.4238 59.6743 46.4238Z" fill="#685A56"/>
<path d="M47.4334 99.0979C55.2106 95.8984 58.9181 87.0089 55.7141 79.2425C52.5101 71.4761 43.608 67.774 35.8307 70.9734C28.0534 74.1729 24.346 83.0625 27.55 90.8288C30.754 98.5952 39.6561 102.297 47.4334 99.0979Z" fill="#C18F80"/>
<path d="M165.509 95.807C171.456 89.8676 171.456 80.2379 165.509 74.2985C159.561 68.3591 149.918 68.3591 143.97 74.2985C138.022 80.2379 138.022 89.8676 143.97 95.807C149.918 101.746 159.561 101.746 165.509 95.807Z" fill="#C18F80"/>
<path d="M113.232 140.263L110.661 106.461L84.2323 110.079L79.9086 159.478C88.6339 158.428 102.832 154.441 113.232 140.244V140.263Z" fill="#C18F80"/>
<path d="M55.2143 48.6993C61.8167 55.3313 54.1432 71.5708 45.8853 70.579C45.3984 78.6696 45.749 81.1006 46.6449 89.1524C48.4172 105.12 56.0518 119.006 70.5614 126.727C85.1099 134.468 104.917 137.229 120.4 130.85C132.398 125.91 141.668 117.139 146.401 105.275C151.815 91.7779 151.873 74.5076 151.133 59.9406C148.446 5.95131 104.411 6.7487 104.411 6.7487C104.411 6.7487 71.4183 8.1879 55.2143 48.6993Z" fill="#E0C0A4"/>
<path d="M79.9087 159.498L78 181.241C78 181.241 78.779 192.113 96.3853 194.175C113.992 196.236 116.076 177.877 116.076 177.877L113.213 140.283C102.812 154.461 88.6144 158.467 79.8892 159.517L79.9087 159.498Z" fill="#E0C0A4"/>
<path d="M74.3592 86.8378C75.8543 86.8378 77.0664 84.4172 77.0664 81.4311C77.0664 78.4451 75.8543 76.0244 74.3592 76.0244C72.8641 76.0244 71.652 78.4451 71.652 81.4311C71.652 84.4172 72.8641 86.8378 74.3592 86.8378Z" fill="#373C44"/>
<path d="M127.12 82.3452C127.12 85.3208 125.912 87.7519 124.412 87.7519C122.913 87.7519 121.705 85.3403 121.705 82.3452C121.705 79.3501 122.913 76.9385 124.412 76.9385C125.912 76.9385 127.12 79.3501 127.12 82.3452Z" fill="#373C44"/>
<path d="M99.0158 85.0488C97.9251 85.7295 96.8734 86.3908 95.8801 87.052C94.9453 87.6938 93.8546 88.5885 93.8157 89.2303C93.7767 89.5026 93.9325 89.8137 94.3805 90.2027C94.77 90.5722 95.2179 90.864 95.7048 91.0195C96.6786 91.3307 97.9056 91.0584 99.0158 90.4361C98.2952 91.4669 96.9903 92.3226 95.4711 92.1281C94.7311 92.0503 94.0494 91.6808 93.4846 91.2529C92.9782 90.9028 92.2576 90.086 92.355 89.0941C92.4913 88.1412 93.0756 87.5382 93.6014 87.1104C94.1468 86.6825 94.7116 86.3324 95.3153 86.0796C96.5034 85.535 97.7498 85.2044 99.0158 85.0488Z" fill="#373C44"/>
<path d="M91.498 97.7095C92.7056 98.5069 93.952 99.1487 95.1985 99.6932C96.4644 100.199 97.7498 100.568 99.0547 100.607C100.34 100.685 101.645 100.432 102.853 99.8877C104.099 99.382 105.209 98.5458 106.397 97.7095C106.008 98.3124 105.579 98.9153 105.112 99.4793C104.566 99.9655 104.06 100.549 103.378 100.899C102.112 101.755 100.515 102.144 98.9768 102.085C95.8607 101.91 93.1146 100.102 91.4786 97.7289L91.498 97.7095Z" fill="#373C44"/>
<path d="M71.652 105.217C74.7929 105.217 77.339 102.674 77.339 99.5379C77.339 96.4015 74.7929 93.8589 71.652 93.8589C68.5112 93.8589 65.9651 96.4015 65.9651 99.5379C65.9651 102.674 68.5112 105.217 71.652 105.217Z" fill="#CE8282"/>
<path d="M124.412 105.217C127.553 105.217 130.099 102.674 130.099 99.5379C130.099 96.4015 127.553 93.8589 124.412 93.8589C121.272 93.8589 118.725 96.4015 118.725 99.5379C118.725 102.674 121.272 105.217 124.412 105.217Z" fill="#CE8282"/>
<path d="M143.479 60.0766C142.019 55.759 141.454 51.1886 140.149 46.8321C138.864 42.4562 136.663 38.0997 132.845 35.6103C129.009 33.1014 124.101 32.8097 119.563 33.4515C107.429 35.163 96.9513 42.6507 85.4021 46.7349C72.6453 51.2275 58.4279 51.4609 45.5348 47.3573C41.0164 45.9181 36.5953 43.9343 32.9923 40.8809C25.6498 34.6573 22.4168 23.9995 25.0656 14.742C25.5525 13.0694 26.2341 11.3968 27.5195 10.2105C28.8049 9.02409 30.772 8.44064 32.3301 9.19913C34.8425 10.4244 34.9788 13.6723 35.4268 16.0645C36.011 19.2346 36.9459 23.7272 39.1661 26.1388C40.88 23.2994 39.9062 18.7095 40.2568 15.5005C40.6658 11.7858 41.8928 7.89608 44.8921 5.65949C45.5737 5.15383 46.3917 4.74541 47.2292 4.84265C49.4105 5.11493 49.6637 8.12946 49.5663 10.3271C49.391 14.2363 50.0143 18.1844 51.397 21.8407C51.1828 15.0921 51.1439 7.77939 55.1559 2.37268C56.0713 1.12797 57.493 -0.0778425 59.0121 0.252783C60.7455 0.622307 61.4856 2.70331 61.4856 4.45368C61.4856 6.2235 61.1156 8.07111 61.8556 9.68535C62.7126 11.533 64.8744 12.5054 66.9194 12.5248C68.9644 12.5443 70.9314 11.8247 72.8401 11.1051C87.3107 5.77618 102.327 1.67253 117.693 0.291681C123.614 -0.233431 129.807 -0.311225 135.183 2.17819C139.974 4.39533 143.694 8.51843 146.206 13.1472C148.718 17.776 150.121 22.9298 151.172 28.1032C153.178 37.9247 154.035 47.9796 153.704 57.9956C153.626 60.6212 154.444 68.5757 150.315 68.3812C146.907 68.2256 144.375 62.7411 143.46 60.0572L143.479 60.0766Z" fill="#685A56"/>
<path d="M187 241.077C187 282.54 146.034 255 95.5 255C44.9659 255 4 282.54 4 241.077C4 199.613 44.9659 166 95.5 166C146.034 166 187 199.613 187 241.077Z" fill="white"/>
<path d="M185.822 229H5.17757C5.17757 229 5.74987 226.39 6.23784 224.5C6.72582 222.61 7.65485 220 7.65485 220H95.5H183.345C183.345 220 184.207 222.329 184.762 224.5C185.317 226.671 185.822 229 185.822 229Z" fill="#FAE247"/>
<path d="M186.537 248H4.46251C4.29423 246.711 4.19003 245.676 4.06054 243.744C3.93105 241.812 4.03433 239 4.03433 239H95.5H186.966C186.966 239 186.994 241.953 186.95 243.5C186.907 245.047 186.537 248 186.537 248Z" fill="#FAE247"/>
<path d="M116.33 70.6759C117.265 69.0811 118.628 67.7586 120.206 66.7084C121.783 65.6582 123.633 64.958 125.562 64.7441C127.49 64.5496 129.515 64.8414 131.229 65.7165C132.982 66.4945 134.404 67.7975 135.533 69.2173C134.676 68.8478 133.917 68.3615 133.118 68.0309C132.3 67.7197 131.521 67.3113 130.684 67.1363C129.067 66.6306 127.392 66.475 125.776 66.6695C122.484 67.0001 119.368 68.6338 116.349 70.6565L116.33 70.6759Z" fill="#373C44"/>
<path d="M83.0455 69.3344C80.4552 66.3199 76.9106 64.8807 73.3075 65.0752C71.4962 65.0752 69.685 65.5614 67.8542 66.0282L65.1276 66.9422C64.2317 67.2923 63.3163 67.6424 62.362 67.9341C63.1021 67.2729 63.9006 66.6894 64.6991 66.0865C65.5366 65.542 66.413 65.0752 67.3089 64.6084C69.1591 63.8305 71.1262 63.1692 73.2491 63.1303C75.333 63.072 77.4948 63.5387 79.2671 64.6668C81.0395 65.7753 82.4417 67.4285 83.0455 69.3344Z" fill="#373C44"/>
</g>
<defs>
<clipPath id="clip0_82_86">
<rect width="194" height="264" fill="white"/>
</clipPath>
</defs>
</svg>
