<svg width="188" height="264" viewBox="0 0 188 264" fill="none" xmlns="http://www.w3.org/2000/svg">
<g clip-path="url(#clip0_82_129)">
<path d="M94.4206 204.986C119.428 206.021 121.947 186.212 121.834 177.399C113.937 174.895 105.044 173.464 95.0786 173.464C85.1134 173.464 76.6147 174.82 68.6613 177.192C68.0596 185.44 69.5074 203.95 94.4206 204.967V204.986Z" fill="white"/>
<path d="M121.853 177.418C121.966 186.231 119.446 206.04 94.4393 205.005C69.5262 203.969 68.0784 185.478 68.6801 177.23C11.596 194.271 -2.4908 238.596 8.96602 256.03C20.4228 273.464 50.2002 254.536 94.4393 254.536C138.678 254.536 164.377 273.962 180.317 258.023C196.257 242.083 176.721 192.272 121.834 177.418H121.853Z" fill="#FAE247"/>
<path d="M45.5206 49.0906C45.5206 49.0906 27.3011 67.8455 45.5206 86.7322C63.7401 105.619 152.544 85.7907 152.544 85.7907C152.544 85.7907 165.762 59.805 144.496 41.389C123.231 22.9542 73.743 28.6786 73.1977 28.6786C72.6524 28.6786 45.5018 49.0717 45.5018 49.0717L45.5206 49.0906Z" fill="#373C44"/>
<path d="M40.1807 108.368C48.3012 108.368 54.8842 101.775 54.8842 93.6427C54.8842 85.5102 48.3012 78.9175 40.1807 78.9175C32.0602 78.9175 25.4772 85.5102 25.4772 93.6427C25.4772 101.775 32.0602 108.368 40.1807 108.368Z" fill="#CE8282"/>
<path d="M149.385 108.368C157.505 108.368 164.088 101.775 164.088 93.6427C164.088 85.5102 157.505 78.9175 149.385 78.9175C141.264 78.9175 134.682 85.5102 134.682 93.6427C134.682 101.775 141.264 108.368 149.385 108.368Z" fill="#CE8282"/>
<path d="M111.173 147.121L108.692 114.394L83.1767 117.896L79.0026 165.725C87.426 164.708 101.133 160.848 111.173 147.102V147.121Z" fill="#D19582"/>
<path d="M44.2984 79.6333C43.8284 87.4667 44.1668 89.8204 45.0317 97.6162C46.7427 113.076 54.1133 126.521 68.121 133.996C82.1664 141.491 101.288 144.165 116.236 137.988C127.819 133.205 136.769 124.713 141.338 113.226C146.565 100.158 146.621 83.437 145.907 69.3331C143.293 17.0604 100.781 17.8324 100.781 17.8324C100.781 17.8324 44.0728 13.4638 44.2796 79.6144L44.2984 79.6333Z" fill="#E5B5A3"/>
<path d="M79.0026 165.725L77.1599 186.777C77.1599 186.777 77.912 197.303 94.9094 199.299C111.907 201.295 113.919 183.519 113.919 183.519L111.155 147.121C101.114 160.848 87.4072 164.727 78.9837 165.744L79.0026 165.725Z" fill="#E5B5A3"/>
<path d="M74.4011 90.1406C74.4011 93.0216 73.2353 95.3754 71.7875 95.3754C70.3398 95.3754 69.174 93.0404 69.174 90.1406C69.174 87.2407 70.3398 84.9058 71.7875 84.9058C73.2353 84.9058 74.4011 87.2407 74.4011 90.1406Z" fill="#373C44"/>
<path d="M122.723 91.0253C122.723 93.9064 121.557 96.2601 120.11 96.2601C118.662 96.2601 117.496 93.9252 117.496 91.0253C117.496 88.1255 118.662 85.7905 120.11 85.7905C121.557 85.7905 122.723 88.1255 122.723 91.0253Z" fill="#373C44"/>
<path d="M95.5913 93.6426C94.5384 94.3016 93.5231 94.9419 92.5641 95.5821C91.6616 96.2035 90.6087 97.0697 90.5711 97.6911C90.5335 97.9547 90.6839 98.256 91.1163 98.6326C91.4924 98.9904 91.9249 99.2728 92.3949 99.4235C93.335 99.7247 94.5196 99.4611 95.5913 98.8586C94.8956 99.8566 93.6359 100.685 92.1693 100.497C91.4548 100.421 90.7967 100.064 90.2514 99.6494C89.7626 99.3105 89.0669 98.5196 89.1609 97.5593C89.2925 96.6366 89.8566 96.0529 90.3643 95.6386C90.8907 95.2243 91.436 94.8854 92.0189 94.6406C93.1658 94.1133 94.3692 93.7932 95.5913 93.6426Z" fill="#373C44"/>
<path d="M88.3336 105.901C89.4994 106.673 90.7027 107.295 91.9061 107.822C93.1282 108.312 94.3692 108.669 95.6289 108.707C96.8699 108.782 98.1297 108.538 99.2954 108.01C100.499 107.521 101.571 106.711 102.717 105.901C102.341 106.485 101.928 107.069 101.476 107.615C100.95 108.086 100.461 108.651 99.8031 108.99C98.5809 109.818 97.0391 110.195 95.5537 110.138C92.5454 109.969 89.8942 108.217 88.3148 105.92L88.3336 105.901Z" fill="#373C44"/>
<path d="M69.174 109.686C72.2062 109.686 74.6642 107.225 74.6642 104.188C74.6642 101.151 72.2062 98.6895 69.174 98.6895C66.1417 98.6895 63.6837 101.151 63.6837 104.188C63.6837 107.225 66.1417 109.686 69.174 109.686Z" fill="#CE8282"/>
<path d="M120.11 111.4C123.142 111.4 125.6 108.938 125.6 105.901C125.6 102.865 123.142 100.403 120.11 100.403C117.077 100.403 114.619 102.865 114.619 105.901C114.619 108.938 117.077 111.4 120.11 111.4Z" fill="#CE8282"/>
<path d="M90.8531 112.04C90.8531 112.04 98.6937 114.394 102.172 112.04C102.172 119.723 101.665 126.897 99.3518 126.275C97.0391 125.673 97.0767 121.926 97.0767 121.926C97.0767 121.926 97.3212 128.893 94.7076 128.29C92.0941 127.688 91.9813 119.704 91.9813 119.704C91.9813 119.704 91.9813 124.656 88.9541 123.432C85.9269 122.227 90.8343 112.021 90.8343 112.021L90.8531 112.04Z" fill="#373C44"/>
<path d="M83.257 91.0254C83.257 91.0254 97.0203 81.4409 107.305 91.0254" stroke="white" stroke-miterlimit="10"/>
<path d="M64.2666 59.5975C62.0667 63.3447 58.4754 66.0563 54.2637 67.0731C48.3973 68.4854 40.7072 68.5607 37.6236 60.7085C32.3401 47.2637 40.1807 37.4155 40.1807 37.4155C40.1807 37.4155 22.3184 22.8221 35.6681 11.2979C49.0178 -0.226159 57.7985 13.3128 57.7985 13.3128C57.7985 13.3128 59.4155 1.01664 71.7875 0.0562937C84.1783 -0.904049 88.3336 11.2979 88.3336 11.2979C88.3336 11.2979 95.4785 -0.659256 109.862 2.22177C124.246 5.1028 121.689 19.9975 121.689 19.9975C121.689 19.9975 126.427 16.6081 134.005 18.2086C146.245 20.8072 152.017 34.5156 149.385 48.45C147.655 57.6203 149.667 66.0375 151.228 70.7262C152.281 73.8708 150.645 76.3376 149.385 76.0928C146.113 75.4526 145.624 43.6483 133.328 44.5145C132.745 51.5193 129.511 63.0058 119.997 60.2942C117.703 59.6352 115.766 58.0723 114.281 56.2269C111.837 53.2141 110.633 49.3539 107.926 46.5482C106.121 44.684 104.034 43.0834 101.683 41.9536C96.1554 39.2609 89.8942 39.5433 84.3475 42.0101C74.5139 46.3599 68.121 53.0069 64.2854 59.5787L64.2666 59.5975Z" fill="#373C44"/>
<path d="M111.912 78.9175C112.532 77.0909 113.792 75.6222 115.277 74.4359C116.8 73.2684 118.699 72.4587 120.711 72.2516C122.723 72.0256 124.848 72.421 126.54 73.4379C127.443 73.8521 128.119 74.5865 128.834 75.1891C129.473 75.8858 130 76.6955 130.432 77.524C128.571 77.0344 127.029 76.4319 125.487 76.2059C123.983 75.867 122.535 75.8481 121.106 75.9988C118.211 76.2624 115.353 77.4864 111.912 78.9363V78.9175Z" fill="#373C44"/>
<path d="M79.7785 77.5051C76.5821 75.0195 73.5925 74.1909 70.3961 74.3039C68.7791 74.3039 67.1245 74.6805 65.3759 74.9818C64.5298 75.2266 63.6084 75.3584 62.6871 75.5844C61.7658 75.8103 60.8445 76.0363 59.8104 76.1305C60.412 75.3208 61.1265 74.624 61.8598 73.9273C62.6307 73.3059 63.458 72.741 64.3229 72.2138C66.128 71.3099 68.1022 70.5567 70.2833 70.5379C72.4268 70.4626 74.7019 71.0275 76.4693 72.3079C78.2367 73.5696 79.5341 75.4337 79.7785 77.4862V77.5051Z" fill="#373C44"/>
<path d="M83.2758 74.3984H44.1104V102.945H83.2758V74.3984Z" stroke="white" stroke-miterlimit="10"/>
<path d="M146.245 75.3208H107.324V103.867H146.245V75.3208Z" stroke="white" stroke-miterlimit="10"/>
</g>
<defs>
<clipPath id="clip0_82_129">
<rect width="187.291" height="264" fill="white"/>
</clipPath>
</defs>
</svg>
