<svg width="270" height="270" viewBox="0 0 270 270" fill="none" xmlns="http://www.w3.org/2000/svg">
<path fill-rule="evenodd" clip-rule="evenodd" d="M173.359 199.791C177.675 204.107 184.924 203.164 187.261 197.526C191.603 187.051 194 175.557 194 163.5C194 114.623 154.601 75 106 75C93.7988 75 82.1775 77.4973 71.614 82.0112C66.0434 84.3917 65.1497 91.5812 69.4333 95.8647C72.2934 98.7249 76.6517 99.3506 80.4127 97.862C88.344 94.7227 96.9769 93 106 93C144.564 93 176 124.468 176 163.5C176 172.468 174.34 181.037 171.316 188.917C169.881 192.656 170.528 196.959 173.359 199.791ZM42.1172 134.627C43.8193 130.812 43.2705 126.27 40.3169 123.317C36.1533 119.153 29.1842 119.889 26.6445 125.201C21.1041 136.79 18 149.781 18 163.5C18 212.377 57.3989 252 106 252C119.856 252 132.964 248.78 144.624 243.042C149.866 240.463 150.554 233.554 146.423 229.423C143.441 226.441 138.842 225.916 135.009 227.677C126.163 231.739 116.338 234 106 234C67.4361 234 36 202.532 36 163.5C36 153.203 38.1878 143.432 42.1172 134.627Z" fill="white"/>
<path d="M105.66 140.18C103.533 140.143 101.498 140.455 99.555 141.115C97.6117 141.775 96.0167 142.673 94.77 143.81C93.5233 144.947 92.9 146.23 92.9 147.66C92.9 149.64 93.4867 151.125 94.66 152.115C95.8333 153.068 97.3733 153.747 99.28 154.15C101.223 154.553 103.35 154.92 105.66 155.25C110.94 156.02 115.798 157.395 120.235 159.375C124.672 161.355 128.228 163.995 130.905 167.295C133.582 170.595 134.92 174.61 134.92 179.34C134.92 183.557 133.857 187.333 131.73 190.67C129.603 193.97 126.743 196.683 123.15 198.81C119.557 200.937 115.56 202.33 111.16 202.99V214.32H100.16V202.99C96.53 202.477 93.12 201.487 89.93 200.02C86.74 198.517 83.9717 196.61 81.625 194.3C79.2783 191.953 77.5367 189.24 76.4 186.16L91.91 180.44C92.2767 181.503 93.0833 182.53 94.33 183.52C95.6133 184.51 97.2267 185.335 99.17 185.995C101.113 186.618 103.277 186.93 105.66 186.93C107.86 186.93 109.932 186.618 111.875 185.995C113.818 185.335 115.395 184.437 116.605 183.3C117.815 182.163 118.42 180.843 118.42 179.34C118.42 177.8 117.778 176.535 116.495 175.545C115.248 174.518 113.635 173.712 111.655 173.125C109.712 172.502 107.713 172.043 105.66 171.75C100.087 170.943 95.0817 169.623 90.645 167.79C86.245 165.92 82.7617 163.353 80.195 160.09C77.665 156.827 76.4 152.683 76.4 147.66C76.4 143.407 77.4633 139.612 79.59 136.275C81.7167 132.938 84.5767 130.207 88.17 128.08C91.7633 125.953 95.76 124.56 100.16 123.9V112.68H111.16V123.9C114.753 124.413 118.145 125.422 121.335 126.925C124.562 128.428 127.348 130.372 129.695 132.755C132.078 135.102 133.82 137.833 134.92 140.95L119.41 146.56C119.043 145.497 118.218 144.488 116.935 143.535C115.688 142.545 114.093 141.738 112.15 141.115C110.207 140.492 108.043 140.18 105.66 140.18Z" fill="white"/>
<g filter="url(#filter0_bd_108_792)">
<circle cx="188" cy="81" r="62" fill="#292929" fill-opacity="0.5" shape-rendering="crispEdges"/>
</g>
<path d="M158.4 95V67H175.04V73H164.4V77H173.12V83H164.4V95H158.4ZM177.853 95V67H195.693V73H183.853V77H192.973V83H183.853V89H195.693V95H177.853ZM200.08 95V67H217.92V73H206.08V77H215.2V83H206.08V89H217.92V95H200.08Z" fill="white"/>
<defs>
<filter id="filter0_bd_108_792" x="96" y="-11" width="184" height="184" filterUnits="userSpaceOnUse" color-interpolation-filters="sRGB">
<feFlood flood-opacity="0" result="BackgroundImageFix"/>
<feGaussianBlur in="BackgroundImage" stdDeviation="15"/>
<feComposite in2="SourceAlpha" operator="in" result="effect1_backgroundBlur_108_792"/>
<feColorMatrix in="SourceAlpha" type="matrix" values="0 0 0 0 0 0 0 0 0 0 0 0 0 0 0 0 0 0 127 0" result="hardAlpha"/>
<feOffset dy="4"/>
<feGaussianBlur stdDeviation="10"/>
<feComposite in2="hardAlpha" operator="out"/>
<feColorMatrix type="matrix" values="0 0 0 0 0 0 0 0 0 0 0 0 0 0 0 0 0 0 0.8 0"/>
<feBlend mode="normal" in2="effect1_backgroundBlur_108_792" result="effect2_dropShadow_108_792"/>
<feBlend mode="normal" in="SourceGraphic" in2="effect2_dropShadow_108_792" result="shape"/>
</filter>
</defs>
</svg>
