<svg width="280" height="270" viewBox="0 0 280 270" fill="none" xmlns="http://www.w3.org/2000/svg">
<rect x="48" y="69" width="190" height="146" rx="12" fill="white"/>
<g filter="url(#filter0_bd_108_755)">
<rect x="173" y="146.927" width="87" height="87" rx="43.5" fill="#292929" fill-opacity="0.5" shape-rendering="crispEdges"/>
</g>
<path d="M192 175.927C192 174.823 192.895 173.927 194 173.927H210C211.105 173.927 212 174.823 212 175.927C212 177.032 211.105 177.927 210 177.927H194C192.895 177.927 192 177.032 192 175.927Z" fill="white"/>
<path d="M194.929 196.856C195.71 196.075 196.976 196.075 197.757 196.856L209.071 208.17C209.852 208.951 209.852 210.217 209.071 210.998C208.29 211.78 207.024 211.78 206.243 210.998L194.929 199.685C194.148 198.904 194.148 197.637 194.929 196.856Z" fill="white"/>
<path d="M223 175.927C223 174.823 223.895 173.927 225 173.927H241C242.105 173.927 243 174.823 243 175.927C243 177.032 242.105 177.927 241 177.927H225C223.895 177.927 223 177.032 223 175.927Z" fill="white"/>
<path d="M223 197.927C223 196.823 223.895 195.927 225 195.927H241C242.105 195.927 243 196.823 243 197.927C243 199.032 242.105 199.927 241 199.927H225C223.895 199.927 223 199.032 223 197.927Z" fill="white"/>
<path d="M223 207.927C223 206.823 223.895 205.927 225 205.927H241C242.105 205.927 243 206.823 243 207.927C243 209.032 242.105 209.927 241 209.927H225C223.895 209.927 223 209.032 223 207.927Z" fill="white"/>
<path d="M202 165.927C203.105 165.927 204 166.823 204 167.927L204 183.927C204 185.032 203.105 185.927 202 185.927C200.895 185.927 200 185.032 200 183.927L200 167.927C200 166.823 200.895 165.927 202 165.927Z" fill="white"/>
<path d="M209.071 196.857C209.852 197.638 209.852 198.904 209.071 199.685L197.757 210.999C196.976 211.78 195.71 211.78 194.929 210.999C194.148 210.218 194.148 208.951 194.929 208.17L206.243 196.857C207.024 196.075 208.29 196.075 209.071 196.857Z" fill="white"/>
<g filter="url(#filter1_bd_108_755)">
<path d="M75 45C75 40.0294 79.0294 36 84 36H88C92.9706 36 97 40.0294 97 45V122C97 126.971 92.9706 131 88 131H84C79.0294 131 75 126.971 75 122V45Z" fill="#292929" fill-opacity="0.5" shape-rendering="crispEdges"/>
</g>
<g filter="url(#filter2_bd_108_755)">
<path d="M37 90C37 85.0294 41.0294 81 46 81H50C54.9706 81 59 85.0294 59 90V122C59 126.971 54.9706 131 50 131H46C41.0294 131 37 126.971 37 122V90Z" fill="#292929" fill-opacity="0.5" shape-rendering="crispEdges"/>
</g>
<g filter="url(#filter3_bd_108_755)">
<path d="M113 69C113 64.0294 117.029 60 122 60H124H126C130.971 60 135 64.0294 135 69V122C135 126.971 130.971 131 126 131H122C117.029 131 113 126.971 113 122V69Z" fill="#292929" fill-opacity="0.5" shape-rendering="crispEdges"/>
</g>
<g filter="url(#filter4_bd_108_755)">
<path d="M151 84C151 79.0294 155.029 75 160 75H164C168.971 75 173 79.0294 173 84V122C173 126.971 168.971 131 164 131H160C155.029 131 151 126.971 151 122V84Z" fill="#292929" fill-opacity="0.5" shape-rendering="crispEdges"/>
</g>
<g filter="url(#filter5_bd_108_755)">
<rect x="20" y="131" width="167" height="20" rx="9" fill="#292929" fill-opacity="0.5" shape-rendering="crispEdges"/>
</g>
<defs>
<filter id="filter0_bd_108_755" x="143" y="116.927" width="147" height="147" filterUnits="userSpaceOnUse" color-interpolation-filters="sRGB">
<feFlood flood-opacity="0" result="BackgroundImageFix"/>
<feGaussianBlur in="BackgroundImage" stdDeviation="15"/>
<feComposite in2="SourceAlpha" operator="in" result="effect1_backgroundBlur_108_755"/>
<feColorMatrix in="SourceAlpha" type="matrix" values="0 0 0 0 0 0 0 0 0 0 0 0 0 0 0 0 0 0 127 0" result="hardAlpha"/>
<feOffset dy="4"/>
<feGaussianBlur stdDeviation="10"/>
<feComposite in2="hardAlpha" operator="out"/>
<feColorMatrix type="matrix" values="0 0 0 0 0 0 0 0 0 0 0 0 0 0 0 0 0 0 0.8 0"/>
<feBlend mode="normal" in2="effect1_backgroundBlur_108_755" result="effect2_dropShadow_108_755"/>
<feBlend mode="normal" in="SourceGraphic" in2="effect2_dropShadow_108_755" result="shape"/>
</filter>
<filter id="filter1_bd_108_755" x="45" y="6" width="82" height="155" filterUnits="userSpaceOnUse" color-interpolation-filters="sRGB">
<feFlood flood-opacity="0" result="BackgroundImageFix"/>
<feGaussianBlur in="BackgroundImage" stdDeviation="15"/>
<feComposite in2="SourceAlpha" operator="in" result="effect1_backgroundBlur_108_755"/>
<feColorMatrix in="SourceAlpha" type="matrix" values="0 0 0 0 0 0 0 0 0 0 0 0 0 0 0 0 0 0 127 0" result="hardAlpha"/>
<feOffset dy="4"/>
<feGaussianBlur stdDeviation="10"/>
<feComposite in2="hardAlpha" operator="out"/>
<feColorMatrix type="matrix" values="0 0 0 0 0 0 0 0 0 0 0 0 0 0 0 0 0 0 0.8 0"/>
<feBlend mode="normal" in2="effect1_backgroundBlur_108_755" result="effect2_dropShadow_108_755"/>
<feBlend mode="normal" in="SourceGraphic" in2="effect2_dropShadow_108_755" result="shape"/>
</filter>
<filter id="filter2_bd_108_755" x="7" y="51" width="82" height="110" filterUnits="userSpaceOnUse" color-interpolation-filters="sRGB">
<feFlood flood-opacity="0" result="BackgroundImageFix"/>
<feGaussianBlur in="BackgroundImage" stdDeviation="15"/>
<feComposite in2="SourceAlpha" operator="in" result="effect1_backgroundBlur_108_755"/>
<feColorMatrix in="SourceAlpha" type="matrix" values="0 0 0 0 0 0 0 0 0 0 0 0 0 0 0 0 0 0 127 0" result="hardAlpha"/>
<feOffset dy="4"/>
<feGaussianBlur stdDeviation="10"/>
<feComposite in2="hardAlpha" operator="out"/>
<feColorMatrix type="matrix" values="0 0 0 0 0 0 0 0 0 0 0 0 0 0 0 0 0 0 0.8 0"/>
<feBlend mode="normal" in2="effect1_backgroundBlur_108_755" result="effect2_dropShadow_108_755"/>
<feBlend mode="normal" in="SourceGraphic" in2="effect2_dropShadow_108_755" result="shape"/>
</filter>
<filter id="filter3_bd_108_755" x="83" y="30" width="82" height="131" filterUnits="userSpaceOnUse" color-interpolation-filters="sRGB">
<feFlood flood-opacity="0" result="BackgroundImageFix"/>
<feGaussianBlur in="BackgroundImage" stdDeviation="15"/>
<feComposite in2="SourceAlpha" operator="in" result="effect1_backgroundBlur_108_755"/>
<feColorMatrix in="SourceAlpha" type="matrix" values="0 0 0 0 0 0 0 0 0 0 0 0 0 0 0 0 0 0 127 0" result="hardAlpha"/>
<feOffset dy="4"/>
<feGaussianBlur stdDeviation="10"/>
<feComposite in2="hardAlpha" operator="out"/>
<feColorMatrix type="matrix" values="0 0 0 0 0 0 0 0 0 0 0 0 0 0 0 0 0 0 0.8 0"/>
<feBlend mode="normal" in2="effect1_backgroundBlur_108_755" result="effect2_dropShadow_108_755"/>
<feBlend mode="normal" in="SourceGraphic" in2="effect2_dropShadow_108_755" result="shape"/>
</filter>
<filter id="filter4_bd_108_755" x="121" y="45" width="82" height="116" filterUnits="userSpaceOnUse" color-interpolation-filters="sRGB">
<feFlood flood-opacity="0" result="BackgroundImageFix"/>
<feGaussianBlur in="BackgroundImage" stdDeviation="15"/>
<feComposite in2="SourceAlpha" operator="in" result="effect1_backgroundBlur_108_755"/>
<feColorMatrix in="SourceAlpha" type="matrix" values="0 0 0 0 0 0 0 0 0 0 0 0 0 0 0 0 0 0 127 0" result="hardAlpha"/>
<feOffset dy="4"/>
<feGaussianBlur stdDeviation="10"/>
<feComposite in2="hardAlpha" operator="out"/>
<feColorMatrix type="matrix" values="0 0 0 0 0 0 0 0 0 0 0 0 0 0 0 0 0 0 0.8 0"/>
<feBlend mode="normal" in2="effect1_backgroundBlur_108_755" result="effect2_dropShadow_108_755"/>
<feBlend mode="normal" in="SourceGraphic" in2="effect2_dropShadow_108_755" result="shape"/>
</filter>
<filter id="filter5_bd_108_755" x="-10" y="101" width="227" height="80" filterUnits="userSpaceOnUse" color-interpolation-filters="sRGB">
<feFlood flood-opacity="0" result="BackgroundImageFix"/>
<feGaussianBlur in="BackgroundImage" stdDeviation="15"/>
<feComposite in2="SourceAlpha" operator="in" result="effect1_backgroundBlur_108_755"/>
<feColorMatrix in="SourceAlpha" type="matrix" values="0 0 0 0 0 0 0 0 0 0 0 0 0 0 0 0 0 0 127 0" result="hardAlpha"/>
<feOffset dy="4"/>
<feGaussianBlur stdDeviation="10"/>
<feComposite in2="hardAlpha" operator="out"/>
<feColorMatrix type="matrix" values="0 0 0 0 0 0 0 0 0 0 0 0 0 0 0 0 0 0 0.8 0"/>
<feBlend mode="normal" in2="effect1_backgroundBlur_108_755" result="effect2_dropShadow_108_755"/>
<feBlend mode="normal" in="SourceGraphic" in2="effect2_dropShadow_108_755" result="shape"/>
</filter>
</defs>
</svg>
