<svg width="270" height="282" viewBox="0 0 270 282" fill="none" xmlns="http://www.w3.org/2000/svg">
<rect x="59.8818" y="31" width="100" height="100" rx="12" transform="rotate(15 59.8818 31)" fill="white"/>
<g filter="url(#filter0_bd_108_764)">
<rect x="110" y="12" width="100" height="100" rx="12" transform="rotate(30 110 12)" fill="#292929" fill-opacity="0.5" shape-rendering="crispEdges"/>
</g>
<path d="M127.584 66.032C126.347 66.0107 125.163 66.192 124.032 66.576C122.901 66.96 121.973 67.4827 121.248 68.144C120.523 68.8053 120.16 69.552 120.16 70.384C120.16 71.536 120.501 72.4 121.184 72.976C121.867 73.5307 122.763 73.9253 123.872 74.16C125.003 74.3947 126.24 74.608 127.584 74.8C130.656 75.248 133.483 76.048 136.064 77.2C138.645 78.352 140.715 79.888 142.272 81.808C143.829 83.728 144.608 86.064 144.608 88.816C144.608 91.2693 143.989 93.4667 142.752 95.408C141.515 97.328 139.851 98.9067 137.76 100.144C135.669 101.381 133.344 102.192 130.784 102.576V109.168H124.384V102.576C122.272 102.277 120.288 101.701 118.432 100.848C116.576 99.9733 114.965 98.864 113.6 97.52C112.235 96.1547 111.221 94.576 110.56 92.784L119.584 89.456C119.797 90.0747 120.267 90.672 120.992 91.248C121.739 91.824 122.677 92.304 123.808 92.688C124.939 93.0507 126.197 93.232 127.584 93.232C128.864 93.232 130.069 93.0507 131.2 92.688C132.331 92.304 133.248 91.7813 133.952 91.12C134.656 90.4587 135.008 89.6907 135.008 88.816C135.008 87.92 134.635 87.184 133.888 86.608C133.163 86.0107 132.224 85.5413 131.072 85.2C129.941 84.8373 128.779 84.5707 127.584 84.4C124.341 83.9307 121.429 83.1627 118.848 82.096C116.288 81.008 114.261 79.5147 112.768 77.616C111.296 75.7173 110.56 73.3067 110.56 70.384C110.56 67.9093 111.179 65.7013 112.416 63.76C113.653 61.8187 115.317 60.2293 117.408 58.992C119.499 57.7547 121.824 56.944 124.384 56.56V50.032H130.784V56.56C132.875 56.8587 134.848 57.4453 136.704 58.32C138.581 59.1947 140.203 60.3253 141.568 61.712C142.955 63.0773 143.968 64.6667 144.608 66.48L135.584 69.744C135.371 69.1253 134.891 68.5387 134.144 67.984C133.419 67.408 132.491 66.9387 131.36 66.576C130.229 66.2133 128.971 66.032 127.584 66.032Z" fill="white"/>
<path d="M200.659 213.813L179.321 192.748C178.819 192.252 178.137 191.973 177.426 191.973C176.715 191.973 176.033 192.252 175.53 192.748L164.58 203.564C164.205 203.935 163.726 204.188 163.206 204.29C162.685 204.393 162.145 204.34 161.655 204.14C161.164 203.939 160.745 203.599 160.45 203.163C160.156 202.726 159.999 202.214 160 201.69V147.647C160 146.945 160.282 146.272 160.785 145.775C161.288 145.279 161.97 145 162.681 145H217.423C217.954 144.999 218.473 145.154 218.915 145.445C219.357 145.735 219.701 146.149 219.905 146.633C220.108 147.118 220.161 147.651 220.057 148.165C219.953 148.679 219.697 149.151 219.321 149.521L208.365 160.332C207.863 160.828 207.58 161.501 207.58 162.203C207.58 162.905 207.863 163.578 208.365 164.075L223.896 179.412C238.417 196.618 237.495 219.123 233.312 232.051C229.907 242.581 220.013 254.303 211.755 261.386C209.931 262.953 207.282 261.296 207.647 258.935C208.322 254.604 209.111 248.32 209.54 240.728C210.376 225.884 206.156 219.515 200.659 213.818V213.813Z" fill="white"/>
<path d="M131.412 212.595L152.188 233.847C152.677 234.347 153.341 234.629 154.033 234.629C154.726 234.629 155.389 234.347 155.879 233.847L166.541 222.938C166.906 222.564 167.372 222.309 167.879 222.205C168.386 222.102 168.911 222.155 169.389 222.357C169.867 222.56 170.275 222.903 170.562 223.342C170.848 223.782 171.001 224.3 171 224.828V279.33C171 279.681 170.932 280.028 170.801 280.352C170.67 280.676 170.478 280.97 170.235 281.218C169.993 281.466 169.705 281.663 169.388 281.797C169.072 281.931 168.732 282 168.389 282H115.09C114.575 281.999 114.071 281.842 113.643 281.548C113.214 281.255 112.881 280.838 112.684 280.351C112.486 279.864 112.435 279.328 112.535 278.811C112.635 278.294 112.883 277.819 113.247 277.445L123.909 266.536C124.398 266.036 124.673 265.357 124.673 264.649C124.673 263.941 124.398 263.262 123.909 262.761L108.788 247.298C94.6485 229.944 95.5414 207.266 99.6192 194.211C102.94 183.574 112.568 171.757 120.609 164.618C122.384 163.038 124.964 164.714 124.608 167.091C123.707 173.178 123.092 179.306 122.765 185.454C121.951 200.431 126.06 206.85 131.412 212.595Z" fill="white"/>
<defs>
<filter id="filter0_bd_108_764" x="34.3904" y="-13.6097" width="187.822" height="187.822" filterUnits="userSpaceOnUse" color-interpolation-filters="sRGB">
<feFlood flood-opacity="0" result="BackgroundImageFix"/>
<feGaussianBlur in="BackgroundImage" stdDeviation="15"/>
<feComposite in2="SourceAlpha" operator="in" result="effect1_backgroundBlur_108_764"/>
<feColorMatrix in="SourceAlpha" type="matrix" values="0 0 0 0 0 0 0 0 0 0 0 0 0 0 0 0 0 0 127 0" result="hardAlpha"/>
<feOffset dy="4"/>
<feGaussianBlur stdDeviation="10"/>
<feComposite in2="hardAlpha" operator="out"/>
<feColorMatrix type="matrix" values="0 0 0 0 0 0 0 0 0 0 0 0 0 0 0 0 0 0 0.8 0"/>
<feBlend mode="normal" in2="effect1_backgroundBlur_108_764" result="effect2_dropShadow_108_764"/>
<feBlend mode="normal" in="SourceGraphic" in2="effect2_dropShadow_108_764" result="shape"/>
</filter>
</defs>
</svg>
